<svg width="265" height="256" viewBox="0 0 265 256" fill="none" xmlns="http://www.w3.org/2000/svg">
<ellipse cx="47.3825" cy="102.62" rx="32.5" ry="63.5" transform="rotate(14.52 47.3825 102.62)" fill="#111010"/>
<path d="M149.948 186.629C140.705 202.019 118.457 202.185 108.985 186.935L50.5332 92.823C40.6459 76.9038 52.0024 56.301 70.7417 56.161L186.234 55.2986C204.973 55.1587 216.636 75.5896 206.988 91.6547L149.948 186.629Z" fill="#0D0C0C"/>
<ellipse cx="217.385" cy="102.621" rx="32.5" ry="63.5" transform="rotate(-14.5221 217.385 102.621)" fill="#0B0A0A"/>
<ellipse cx="129.5" cy="184" rx="13.5" ry="12" fill="#565454"/>
<g filter="url(#filter0_d_2_9)">
<path d="M44.32 246.7H44.47C44.61 246.7 44.74 246.64 44.86 246.52C44.98 246.4 45.08 246.26 45.16 246.1C45.26 245.94 45.33 245.77 45.37 245.59C45.41 245.39 45.43 245.21 45.43 245.05V229.06C45.43 228.92 45.41 228.76 45.37 228.58C45.33 228.4 45.27 228.23 45.19 228.07C45.11 227.91 45.01 227.78 44.89 227.68C44.77 227.56 44.63 227.5 44.47 227.5H44.32V227.2H50.11C51.69 227.2 53.11 227.48 54.37 228.04C55.63 228.58 56.69 229.32 57.55 230.26C58.43 231.18 59.1 232.24 59.56 233.44C60.02 234.64 60.25 235.89 60.25 237.19C60.25 238.41 60.03 239.61 59.59 240.79C59.15 241.95 58.49 242.99 57.61 243.91C56.73 244.83 55.63 245.58 54.31 246.16C52.99 246.72 51.46 247 49.72 247H44.32V246.7ZM58.21 237.64C58.21 236.36 57.98 235.15 57.52 234.01C57.06 232.87 56.41 231.88 55.57 231.04C54.75 230.18 53.77 229.5 52.63 229C51.51 228.5 50.29 228.25 48.97 228.25H47.44V245.95H49.03C50.11 245.95 51.19 245.79 52.27 245.47C53.37 245.13 54.36 244.62 55.24 243.94C56.12 243.24 56.83 242.37 57.37 241.33C57.93 240.29 58.21 239.06 58.21 237.64ZM69.1363 247.21C68.1363 247.21 67.2363 247.05 66.4363 246.73C65.6363 246.39 64.9463 245.94 64.3663 245.38C63.8063 244.8 63.3663 244.12 63.0463 243.34C62.7463 242.56 62.5963 241.71 62.5963 240.79C62.5963 239.81 62.7663 238.92 63.1063 238.12C63.4463 237.3 63.9163 236.6 64.5163 236.02C65.1163 235.44 65.8263 234.99 66.6463 234.67C67.4663 234.35 68.3563 234.19 69.3163 234.19C70.2763 234.19 71.1563 234.35 71.9563 234.67C72.7563 234.97 73.4463 235.4 74.0263 235.96C74.6063 236.52 75.0563 237.19 75.3763 237.97C75.6963 238.73 75.8563 239.57 75.8563 240.49C75.8563 241.35 75.7063 242.19 75.4063 243.01C75.1263 243.81 74.6963 244.52 74.1163 245.14C73.5563 245.76 72.8563 246.26 72.0163 246.64C71.1963 247.02 70.2363 247.21 69.1363 247.21ZM68.9563 235.18C68.2363 235.22 67.5963 235.4 67.0363 235.72C66.4963 236.02 66.0363 236.42 65.6563 236.92C65.2963 237.4 65.0163 237.95 64.8163 238.57C64.6363 239.19 64.5463 239.82 64.5463 240.46C64.5463 241.2 64.6563 241.92 64.8763 242.62C65.1163 243.3 65.4463 243.91 65.8663 244.45C66.3063 244.99 66.8263 245.42 67.4263 245.74C68.0263 246.06 68.6963 246.22 69.4363 246.22C70.1763 246.22 70.8263 246.06 71.3863 245.74C71.9663 245.42 72.4463 245.01 72.8263 244.51C73.2063 243.99 73.4863 243.41 73.6663 242.77C73.8663 242.13 73.9663 241.49 73.9663 240.85C73.9663 240.19 73.8663 239.53 73.6663 238.87C73.4663 238.19 73.1563 237.58 72.7363 237.04C72.3163 236.48 71.7863 236.03 71.1463 235.69C70.5263 235.35 69.7963 235.18 68.9563 235.18ZM97.7394 245.05C97.7394 245.21 97.7594 245.39 97.7994 245.59C97.8394 245.77 97.8994 245.94 97.9794 246.1C98.0594 246.26 98.1494 246.4 98.2494 246.52C98.3694 246.64 98.5094 246.7 98.6694 246.7V247H94.7694V246.7C94.9294 246.7 95.0694 246.64 95.1894 246.52C95.3094 246.4 95.4094 246.26 95.4894 246.1C95.5894 245.94 95.6594 245.77 95.6994 245.59C95.7394 245.39 95.7594 245.21 95.7594 245.05V238.57C95.7594 238.11 95.6894 237.67 95.5494 237.25C95.4294 236.83 95.2394 236.47 94.9794 236.17C94.7194 235.85 94.3994 235.6 94.0194 235.42C93.6394 235.22 93.2094 235.12 92.7294 235.12C92.1894 235.12 91.7194 235.25 91.3194 235.51C90.9394 235.75 90.6194 236.05 90.3594 236.41C90.1194 236.77 89.9394 237.14 89.8194 237.52C89.6994 237.88 89.6394 238.18 89.6394 238.42V245.05C89.6394 245.21 89.6594 245.39 89.6994 245.59C89.7394 245.77 89.7994 245.94 89.8794 246.1C89.9794 246.26 90.0794 246.4 90.1794 246.52C90.2994 246.64 90.4394 246.7 90.5994 246.7V247H86.7294V246.7C86.8694 246.7 86.9994 246.64 87.1194 246.52C87.2394 246.4 87.3394 246.26 87.4194 246.1C87.5194 245.94 87.5894 245.77 87.6294 245.59C87.6694 245.39 87.6894 245.21 87.6894 245.05V238.39C87.6894 237.91 87.5994 237.47 87.4194 237.07C87.2594 236.65 87.0294 236.3 86.7294 236.02C86.4494 235.74 86.1194 235.52 85.7394 235.36C85.3794 235.2 85.0094 235.12 84.6294 235.12C84.1094 235.12 83.6494 235.22 83.2494 235.42C82.8694 235.62 82.5494 235.87 82.2894 236.17C82.0494 236.47 81.8594 236.8 81.7194 237.16C81.5994 237.5 81.5394 237.83 81.5394 238.15V245.05C81.5394 245.21 81.5594 245.39 81.5994 245.59C81.6394 245.77 81.6994 245.94 81.7794 246.1C81.8794 246.26 81.9794 246.4 82.0794 246.52C82.1994 246.64 82.3394 246.7 82.4994 246.7V247H78.6294V246.7C78.7694 246.7 78.8994 246.64 79.0194 246.52C79.1394 246.4 79.2394 246.26 79.3194 246.1C79.4194 245.94 79.4894 245.77 79.5294 245.59C79.5694 245.39 79.5894 245.21 79.5894 245.05V237.04C79.5894 236.88 79.5794 236.7 79.5594 236.5C79.5394 236.3 79.4994 236.11 79.4394 235.93C79.3794 235.75 79.2794 235.6 79.1394 235.48C78.9994 235.36 78.8094 235.3 78.5694 235.3V235.03L81.5394 234.04V235.57C81.8394 235.23 82.2494 234.9 82.7694 234.58C83.3094 234.26 84.0094 234.1 84.8694 234.1C85.4294 234.1 85.9294 234.18 86.3694 234.34C86.8094 234.5 87.1894 234.71 87.5094 234.97C87.8494 235.21 88.1394 235.49 88.3794 235.81C88.6194 236.13 88.8194 236.44 88.9794 236.74C89.1394 236.44 89.3294 236.14 89.5494 235.84C89.7694 235.52 90.0294 235.23 90.3294 234.97C90.6494 234.71 91.0194 234.5 91.4394 234.34C91.8794 234.18 92.3894 234.1 92.9694 234.1C94.0894 234.1 94.9694 234.3 95.6094 234.7C96.2494 235.1 96.7194 235.58 97.0194 236.14C97.3394 236.7 97.5394 237.29 97.6194 237.91C97.6994 238.51 97.7394 239.02 97.7394 239.44V245.05ZM101.713 246.7H101.863C102.003 246.7 102.133 246.64 102.253 246.52C102.373 246.4 102.473 246.26 102.553 246.1C102.653 245.94 102.723 245.77 102.763 245.59C102.803 245.39 102.823 245.21 102.823 245.05V229.06C102.823 228.92 102.803 228.76 102.763 228.58C102.723 228.4 102.663 228.23 102.583 228.07C102.503 227.91 102.403 227.78 102.283 227.68C102.163 227.56 102.023 227.5 101.863 227.5H101.713V227.2H107.503C109.083 227.2 110.503 227.48 111.763 228.04C113.023 228.58 114.083 229.32 114.943 230.26C115.823 231.18 116.493 232.24 116.953 233.44C117.413 234.64 117.643 235.89 117.643 237.19C117.643 238.41 117.423 239.61 116.983 240.79C116.543 241.95 115.883 242.99 115.003 243.91C114.123 244.83 113.023 245.58 111.703 246.16C110.383 246.72 108.853 247 107.113 247H101.713V246.7ZM115.603 237.64C115.603 236.36 115.373 235.15 114.913 234.01C114.453 232.87 113.803 231.88 112.963 231.04C112.143 230.18 111.163 229.5 110.023 229C108.903 228.5 107.683 228.25 106.363 228.25H104.833V245.95H106.423C107.503 245.95 108.583 245.79 109.663 245.47C110.763 245.13 111.753 244.62 112.633 243.94C113.513 243.24 114.223 242.37 114.763 241.33C115.323 240.29 115.603 239.06 115.603 237.64ZM126.529 247.21C125.529 247.21 124.629 247.05 123.829 246.73C123.029 246.39 122.339 245.94 121.759 245.38C121.199 244.8 120.759 244.12 120.439 243.34C120.139 242.56 119.989 241.71 119.989 240.79C119.989 239.81 120.159 238.92 120.499 238.12C120.839 237.3 121.309 236.6 121.909 236.02C122.509 235.44 123.219 234.99 124.039 234.67C124.859 234.35 125.749 234.19 126.709 234.19C127.669 234.19 128.549 234.35 129.349 234.67C130.149 234.97 130.839 235.4 131.419 235.96C131.999 236.52 132.449 237.19 132.769 237.97C133.089 238.73 133.249 239.57 133.249 240.49C133.249 241.35 133.099 242.19 132.799 243.01C132.519 243.81 132.089 244.52 131.509 245.14C130.949 245.76 130.249 246.26 129.409 246.64C128.589 247.02 127.629 247.21 126.529 247.21ZM126.349 235.18C125.629 235.22 124.989 235.4 124.429 235.72C123.889 236.02 123.429 236.42 123.049 236.92C122.689 237.4 122.409 237.95 122.209 238.57C122.029 239.19 121.939 239.82 121.939 240.46C121.939 241.2 122.049 241.92 122.269 242.62C122.509 243.3 122.839 243.91 123.259 244.45C123.699 244.99 124.219 245.42 124.819 245.74C125.419 246.06 126.089 246.22 126.829 246.22C127.569 246.22 128.219 246.06 128.779 245.74C129.359 245.42 129.839 245.01 130.219 244.51C130.599 243.99 130.879 243.41 131.059 242.77C131.259 242.13 131.359 241.49 131.359 240.85C131.359 240.19 131.259 239.53 131.059 238.87C130.859 238.19 130.549 237.58 130.129 237.04C129.709 236.48 129.179 236.03 128.539 235.69C127.919 235.35 127.189 235.18 126.349 235.18ZM155.132 245.05C155.132 245.21 155.152 245.39 155.192 245.59C155.232 245.77 155.292 245.94 155.372 246.1C155.452 246.26 155.542 246.4 155.642 246.52C155.762 246.64 155.902 246.7 156.062 246.7V247H152.162V246.7C152.322 246.7 152.462 246.64 152.582 246.52C152.702 246.4 152.802 246.26 152.882 246.1C152.982 245.94 153.052 245.77 153.092 245.59C153.132 245.39 153.152 245.21 153.152 245.05V238.57C153.152 238.11 153.082 237.67 152.942 237.25C152.822 236.83 152.632 236.47 152.372 236.17C152.112 235.85 151.792 235.6 151.412 235.42C151.032 235.22 150.602 235.12 150.122 235.12C149.582 235.12 149.112 235.25 148.712 235.51C148.332 235.75 148.012 236.05 147.752 236.41C147.512 236.77 147.332 237.14 147.212 237.52C147.092 237.88 147.032 238.18 147.032 238.42V245.05C147.032 245.21 147.052 245.39 147.092 245.59C147.132 245.77 147.192 245.94 147.272 246.1C147.372 246.26 147.472 246.4 147.572 246.52C147.692 246.64 147.832 246.7 147.992 246.7V247H144.122V246.7C144.262 246.7 144.392 246.64 144.512 246.52C144.632 246.4 144.732 246.26 144.812 246.1C144.912 245.94 144.982 245.77 145.022 245.59C145.062 245.39 145.082 245.21 145.082 245.05V238.39C145.082 237.91 144.992 237.47 144.812 237.07C144.652 236.65 144.422 236.3 144.122 236.02C143.842 235.74 143.512 235.52 143.132 235.36C142.772 235.2 142.402 235.12 142.022 235.12C141.502 235.12 141.042 235.22 140.642 235.42C140.262 235.62 139.942 235.87 139.682 236.17C139.442 236.47 139.252 236.8 139.112 237.16C138.992 237.5 138.932 237.83 138.932 238.15V245.05C138.932 245.21 138.952 245.39 138.992 245.59C139.032 245.77 139.092 245.94 139.172 246.1C139.272 246.26 139.372 246.4 139.472 246.52C139.592 246.64 139.732 246.7 139.892 246.7V247H136.022V246.7C136.162 246.7 136.292 246.64 136.412 246.52C136.532 246.4 136.632 246.26 136.712 246.1C136.812 245.94 136.882 245.77 136.922 245.59C136.962 245.39 136.982 245.21 136.982 245.05V237.04C136.982 236.88 136.972 236.7 136.952 236.5C136.932 236.3 136.892 236.11 136.832 235.93C136.772 235.75 136.672 235.6 136.532 235.48C136.392 235.36 136.202 235.3 135.962 235.3V235.03L138.932 234.04V235.57C139.232 235.23 139.642 234.9 140.162 234.58C140.702 234.26 141.402 234.1 142.262 234.1C142.822 234.1 143.322 234.18 143.762 234.34C144.202 234.5 144.582 234.71 144.902 234.97C145.242 235.21 145.532 235.49 145.772 235.81C146.012 236.13 146.212 236.44 146.372 236.74C146.532 236.44 146.722 236.14 146.942 235.84C147.162 235.52 147.422 235.23 147.722 234.97C148.042 234.71 148.412 234.5 148.832 234.34C149.272 234.18 149.782 234.1 150.362 234.1C151.482 234.1 152.362 234.3 153.002 234.7C153.642 235.1 154.112 235.58 154.412 236.14C154.732 236.7 154.932 237.29 155.012 237.91C155.092 238.51 155.132 239.02 155.132 239.44V245.05ZM159.345 245.71C159.345 245.31 159.475 244.97 159.735 244.69C160.015 244.41 160.355 244.27 160.755 244.27C161.155 244.27 161.495 244.41 161.775 244.69C162.055 244.97 162.195 245.31 162.195 245.71C162.195 246.11 162.055 246.45 161.775 246.73C161.495 246.99 161.155 247.12 160.755 247.12C160.355 247.12 160.015 246.99 159.735 246.73C159.475 246.45 159.345 246.11 159.345 245.71ZM176.24 245.92C176.08 245.92 175.93 245.96 175.79 246.04C175.65 246.1 175.49 246.18 175.31 246.28C174.97 246.48 174.54 246.69 174.02 246.91C173.5 247.11 172.82 247.21 171.98 247.21C170.96 247.21 170.01 247.05 169.13 246.73C168.27 246.39 167.52 245.93 166.88 245.35C166.26 244.75 165.77 244.06 165.41 243.28C165.07 242.48 164.9 241.62 164.9 240.7C164.9 239.84 165.05 239.02 165.35 238.24C165.67 237.46 166.12 236.77 166.7 236.17C167.28 235.57 167.99 235.09 168.83 234.73C169.69 234.37 170.66 234.19 171.74 234.19C172.48 234.19 173.08 234.28 173.54 234.46C174 234.62 174.39 234.78 174.71 234.94C174.89 235.04 175.06 235.12 175.22 235.18C175.4 235.24 175.58 235.27 175.76 235.27V237.55H175.46C175.36 237.17 175.18 236.84 174.92 236.56C174.66 236.26 174.36 236.01 174.02 235.81C173.68 235.61 173.31 235.46 172.91 235.36C172.51 235.26 172.12 235.21 171.74 235.21C170.92 235.21 170.2 235.36 169.58 235.66C168.96 235.94 168.45 236.32 168.05 236.8C167.65 237.26 167.35 237.79 167.15 238.39C166.95 238.99 166.85 239.61 166.85 240.25C166.85 240.99 166.97 241.72 167.21 242.44C167.45 243.14 167.79 243.77 168.23 244.33C168.69 244.89 169.24 245.34 169.88 245.68C170.52 246.02 171.24 246.19 172.04 246.19C172.6 246.19 173.11 246.11 173.57 245.95C174.05 245.79 174.45 245.58 174.77 245.32C175.11 245.06 175.38 244.78 175.58 244.48C175.78 244.16 175.9 243.86 175.94 243.58H176.24V245.92ZM184.537 247.21C183.537 247.21 182.637 247.05 181.837 246.73C181.037 246.39 180.347 245.94 179.767 245.38C179.207 244.8 178.767 244.12 178.447 243.34C178.147 242.56 177.997 241.71 177.997 240.79C177.997 239.81 178.167 238.92 178.507 238.12C178.847 237.3 179.317 236.6 179.917 236.02C180.517 235.44 181.227 234.99 182.047 234.67C182.867 234.35 183.757 234.19 184.717 234.19C185.677 234.19 186.557 234.35 187.357 234.67C188.157 234.97 188.847 235.4 189.427 235.96C190.007 236.52 190.457 237.19 190.777 237.97C191.097 238.73 191.257 239.57 191.257 240.49C191.257 241.35 191.107 242.19 190.807 243.01C190.527 243.81 190.097 244.52 189.517 245.14C188.957 245.76 188.257 246.26 187.417 246.64C186.597 247.02 185.637 247.21 184.537 247.21ZM184.357 235.18C183.637 235.22 182.997 235.4 182.437 235.72C181.897 236.02 181.437 236.42 181.057 236.92C180.697 237.4 180.417 237.95 180.217 238.57C180.037 239.19 179.947 239.82 179.947 240.46C179.947 241.2 180.057 241.92 180.277 242.62C180.517 243.3 180.847 243.91 181.267 244.45C181.707 244.99 182.227 245.42 182.827 245.74C183.427 246.06 184.097 246.22 184.837 246.22C185.577 246.22 186.227 246.06 186.787 245.74C187.367 245.42 187.847 245.01 188.227 244.51C188.607 243.99 188.887 243.41 189.067 242.77C189.267 242.13 189.367 241.49 189.367 240.85C189.367 240.19 189.267 239.53 189.067 238.87C188.867 238.19 188.557 237.58 188.137 237.04C187.717 236.48 187.187 236.03 186.547 235.69C185.927 235.35 185.197 235.18 184.357 235.18ZM213.14 245.05C213.14 245.21 213.16 245.39 213.2 245.59C213.24 245.77 213.3 245.94 213.38 246.1C213.46 246.26 213.55 246.4 213.65 246.52C213.77 246.64 213.91 246.7 214.07 246.7V247H210.17V246.7C210.33 246.7 210.47 246.64 210.59 246.52C210.71 246.4 210.81 246.26 210.89 246.1C210.99 245.94 211.06 245.77 211.1 245.59C211.14 245.39 211.16 245.21 211.16 245.05V238.57C211.16 238.11 211.09 237.67 210.95 237.25C210.83 236.83 210.64 236.47 210.38 236.17C210.12 235.85 209.8 235.6 209.42 235.42C209.04 235.22 208.61 235.12 208.13 235.12C207.59 235.12 207.12 235.25 206.72 235.51C206.34 235.75 206.02 236.05 205.76 236.41C205.52 236.77 205.34 237.14 205.22 237.52C205.1 237.88 205.04 238.18 205.04 238.42V245.05C205.04 245.21 205.06 245.39 205.1 245.59C205.14 245.77 205.2 245.94 205.28 246.1C205.38 246.26 205.48 246.4 205.58 246.52C205.7 246.64 205.84 246.7 206 246.7V247H202.13V246.7C202.27 246.7 202.4 246.64 202.52 246.52C202.64 246.4 202.74 246.26 202.82 246.1C202.92 245.94 202.99 245.77 203.03 245.59C203.07 245.39 203.09 245.21 203.09 245.05V238.39C203.09 237.91 203 237.47 202.82 237.07C202.66 236.65 202.43 236.3 202.13 236.02C201.85 235.74 201.52 235.52 201.14 235.36C200.78 235.2 200.41 235.12 200.03 235.12C199.51 235.12 199.05 235.22 198.65 235.42C198.27 235.62 197.95 235.87 197.69 236.17C197.45 236.47 197.26 236.8 197.12 237.16C197 237.5 196.94 237.83 196.94 238.15V245.05C196.94 245.21 196.96 245.39 197 245.59C197.04 245.77 197.1 245.94 197.18 246.1C197.28 246.26 197.38 246.4 197.48 246.52C197.6 246.64 197.74 246.7 197.9 246.7V247H194.03V246.7C194.17 246.7 194.3 246.64 194.42 246.52C194.54 246.4 194.64 246.26 194.72 246.1C194.82 245.94 194.89 245.77 194.93 245.59C194.97 245.39 194.99 245.21 194.99 245.05V237.04C194.99 236.88 194.98 236.7 194.96 236.5C194.94 236.3 194.9 236.11 194.84 235.93C194.78 235.75 194.68 235.6 194.54 235.48C194.4 235.36 194.21 235.3 193.97 235.3V235.03L196.94 234.04V235.57C197.24 235.23 197.65 234.9 198.17 234.58C198.71 234.26 199.41 234.1 200.27 234.1C200.83 234.1 201.33 234.18 201.77 234.34C202.21 234.5 202.59 234.71 202.91 234.97C203.25 235.21 203.54 235.49 203.78 235.81C204.02 236.13 204.22 236.44 204.38 236.74C204.54 236.44 204.73 236.14 204.95 235.84C205.17 235.52 205.43 235.23 205.73 234.97C206.05 234.71 206.42 234.5 206.84 234.34C207.28 234.18 207.79 234.1 208.37 234.1C209.49 234.1 210.37 234.3 211.01 234.7C211.65 235.1 212.12 235.58 212.42 236.14C212.74 236.7 212.94 237.29 213.02 237.91C213.1 238.51 213.14 239.02 213.14 239.44V245.05Z" fill="black"/>
<path d="M44.32 246.7V245.7H43.32V246.7H44.32ZM44.86 246.52L45.5671 247.227L45.5671 247.227L44.86 246.52ZM45.16 246.1L44.312 245.57L44.2868 245.61L44.2656 245.653L45.16 246.1ZM45.37 245.59L46.3462 245.807L46.3485 245.797L46.3506 245.786L45.37 245.59ZM44.89 227.68L44.1829 228.387L44.215 228.419L44.2498 228.448L44.89 227.68ZM44.32 227.5H43.32V228.5H44.32V227.5ZM44.32 227.2V226.2H43.32V227.2H44.32ZM54.37 228.04L53.9638 228.954L53.9761 228.959L54.37 228.04ZM57.55 230.26L56.8122 230.935L56.8197 230.943L56.8274 230.951L57.55 230.26ZM59.59 240.79L60.525 241.145L60.527 241.139L59.59 240.79ZM57.61 243.91L56.8874 243.219L56.8874 243.219L57.61 243.91ZM54.31 246.16L54.7006 247.081L54.7123 247.076L54.31 246.16ZM44.32 247H43.32V248H44.32V247ZM57.52 234.01L58.4473 233.636L58.4473 233.636L57.52 234.01ZM55.57 231.04L54.8463 231.73L54.8545 231.739L54.8629 231.747L55.57 231.04ZM52.63 229L52.2223 229.913L52.2283 229.916L52.63 229ZM47.44 228.25V227.25H46.44V228.25H47.44ZM47.44 245.95H46.44V246.95H47.44V245.95ZM52.27 245.47L52.5541 246.429L52.5653 246.425L52.27 245.47ZM55.24 243.94L55.8515 244.731L55.8625 244.723L55.24 243.94ZM57.37 241.33L56.4895 240.856L56.486 240.863L56.4825 240.869L57.37 241.33ZM44.32 247.7H44.47V245.7H44.32V247.7ZM44.47 247.7C44.9298 247.7 45.302 247.492 45.5671 247.227L44.1529 245.813C44.1612 245.805 44.1935 245.775 44.2534 245.747C44.3167 245.718 44.3919 245.7 44.47 245.7V247.7ZM45.5671 247.227C45.7671 247.027 45.929 246.798 46.0544 246.547L44.2656 245.653C44.231 245.722 44.1929 245.773 44.1529 245.813L45.5671 247.227ZM46.008 246.63C46.1668 246.376 46.281 246.1 46.3462 245.807L44.3938 245.373C44.379 245.44 44.3532 245.504 44.312 245.57L46.008 246.63ZM46.3506 245.786C46.4002 245.538 46.43 245.291 46.43 245.05H44.43C44.43 245.129 44.4198 245.242 44.3894 245.394L46.3506 245.786ZM46.43 245.05V229.06H44.43V245.05H46.43ZM46.43 229.06C46.43 228.828 46.3973 228.593 46.3462 228.363L44.3938 228.797C44.4226 228.927 44.43 229.012 44.43 229.06H46.43ZM46.3462 228.363C46.289 228.106 46.2021 227.858 46.0844 227.623L44.2956 228.517C44.3379 228.602 44.371 228.694 44.3938 228.797L46.3462 228.363ZM46.0844 227.623C45.9516 227.357 45.7705 227.112 45.5302 226.912L44.2498 228.448C44.2506 228.449 44.255 228.453 44.2624 228.462C44.27 228.472 44.2817 228.489 44.2956 228.517L46.0844 227.623ZM45.5971 226.973C45.3022 226.678 44.9125 226.5 44.47 226.5V228.5C44.4215 228.5 44.3618 228.49 44.3011 228.464C44.2415 228.439 44.2026 228.407 44.1829 228.387L45.5971 226.973ZM44.47 226.5H44.32V228.5H44.47V226.5ZM45.32 227.5V227.2H43.32V227.5H45.32ZM44.32 228.2H50.11V226.2H44.32V228.2ZM50.11 228.2C51.5704 228.2 52.8491 228.458 53.9639 228.954L54.7761 227.126C53.3709 226.502 51.8096 226.2 50.11 226.2V228.2ZM53.9761 228.959C55.1155 229.447 56.0553 230.108 56.8122 230.935L58.2878 229.585C57.3247 228.532 56.1445 227.713 54.7639 227.121L53.9761 228.959ZM56.8274 230.951C57.6147 231.774 58.2133 232.721 58.6262 233.798L60.4937 233.082C59.9867 231.759 59.2453 230.586 58.2726 229.569L56.8274 230.951ZM58.6262 233.798C59.0419 234.882 59.25 236.011 59.25 237.19H61.25C61.25 235.769 60.9981 234.398 60.4937 233.082L58.6262 233.798ZM59.25 237.19C59.25 238.287 59.0527 239.369 58.653 240.441L60.527 241.139C61.0073 239.851 61.25 238.533 61.25 237.19H59.25ZM58.655 240.435C58.2638 241.467 57.6772 242.393 56.8874 243.219L58.3326 244.601C59.3028 243.587 60.0362 242.433 60.525 241.145L58.655 240.435ZM56.8874 243.219C56.1096 244.032 55.1231 244.71 53.9077 245.244L54.7123 247.076C56.1369 246.45 57.3504 245.628 58.3326 244.601L56.8874 243.219ZM53.9194 245.239C52.7464 245.737 51.3538 246 49.72 246V248C51.5662 248 53.2336 247.703 54.7005 247.081L53.9194 245.239ZM49.72 246H44.32V248H49.72V246ZM45.32 247V246.7H43.32V247H45.32ZM59.21 237.64C59.21 236.237 58.9573 234.9 58.4473 233.636L56.5926 234.384C57.0027 235.4 57.21 236.483 57.21 237.64H59.21ZM58.4473 233.636C57.9388 232.376 57.2155 231.271 56.2771 230.333L54.8629 231.747C55.6045 232.489 56.1811 233.364 56.5926 234.384L58.4473 233.636ZM56.2937 230.35C55.378 229.39 54.287 228.635 53.0317 228.084L52.2283 229.916C53.253 230.365 54.1219 230.97 54.8463 231.73L56.2937 230.35ZM53.0376 228.087C51.7798 227.525 50.4196 227.25 48.97 227.25V229.25C50.1604 229.25 51.2402 229.475 52.2223 229.913L53.0376 228.087ZM48.97 227.25H47.44V229.25H48.97V227.25ZM46.44 228.25V245.95H48.44V228.25H46.44ZM47.44 246.95H49.03V244.95H47.44V246.95ZM49.03 246.95C50.2102 246.95 51.3858 246.775 52.5541 246.429L51.9859 244.511C50.9941 244.805 50.0097 244.95 49.03 244.95V246.95ZM52.5653 246.425C53.7756 246.051 54.8734 245.487 55.8514 244.731L54.6285 243.149C53.8466 243.753 52.9644 244.209 51.9747 244.515L52.5653 246.425ZM55.8625 244.723C56.8571 243.931 57.6555 242.95 58.2575 241.791L56.4825 240.869C56.0044 241.79 55.3829 242.549 54.6175 243.157L55.8625 244.723ZM58.2505 241.804C58.9033 240.592 59.21 239.192 59.21 237.64H57.21C57.21 238.928 56.9567 239.988 56.4895 240.856L58.2505 241.804ZM66.4363 246.73L66.0452 247.65L66.055 247.655L66.0649 247.658L66.4363 246.73ZM64.3663 245.38L63.6469 246.075L63.6591 246.087L63.6717 246.099L64.3663 245.38ZM63.0463 243.34L62.113 243.699L62.1169 243.709L62.1212 243.72L63.0463 243.34ZM63.1063 238.12L64.0267 238.511L64.0301 238.503L63.1063 238.12ZM64.5163 236.02L63.8213 235.301L63.8213 235.301L64.5163 236.02ZM66.6463 234.67L66.2828 233.738L66.2828 233.738L66.6463 234.67ZM71.9563 234.67L71.5849 235.598L71.595 235.603L71.6052 235.606L71.9563 234.67ZM74.0263 235.96L74.7209 235.241L74.0263 235.96ZM75.3763 237.97L74.4511 238.35L74.4547 238.358L75.3763 237.97ZM75.4063 243.01L74.4671 242.666L74.4625 242.68L75.4063 243.01ZM74.1163 245.14L73.386 244.457L73.3801 244.463L73.3742 244.47L74.1163 245.14ZM72.0163 246.64L71.6041 245.729L71.5959 245.733L72.0163 246.64ZM68.9563 235.18V234.18H68.9286L68.9009 234.182L68.9563 235.18ZM67.0363 235.72L67.522 236.594L67.5325 236.588L67.0363 235.72ZM65.6563 236.92L64.8601 236.315L64.8563 236.32L65.6563 236.92ZM64.8163 238.57L63.8646 238.263L63.8601 238.277L63.856 238.291L64.8163 238.57ZM64.8763 242.62L63.9223 242.92L63.9275 242.936L63.9333 242.953L64.8763 242.62ZM65.8663 244.45L65.077 245.064L65.0839 245.073L65.0911 245.082L65.8663 244.45ZM67.4263 245.74L67.8969 244.858L67.8969 244.858L67.4263 245.74ZM71.3863 245.74L70.9032 244.864L70.8967 244.868L70.8902 244.872L71.3863 245.74ZM72.8263 244.51L73.6225 245.115L73.6282 245.108L73.6337 245.1L72.8263 244.51ZM73.6663 242.77L72.7118 242.472L72.7076 242.485L72.7037 242.499L73.6663 242.77ZM73.6663 238.87L72.7069 239.152L72.7093 239.16L73.6663 238.87ZM72.7363 237.04L71.9363 237.64L71.9416 237.647L71.947 237.654L72.7363 237.04ZM71.1463 235.69L70.6654 236.567L70.6772 236.573L71.1463 235.69ZM69.1363 246.21C68.2434 246.21 67.4722 246.067 66.8077 245.802L66.0649 247.658C67.0004 248.033 68.0293 248.21 69.1363 248.21V246.21ZM66.8275 245.81C66.1312 245.514 65.5462 245.129 65.0609 244.661L63.6717 246.099C64.3464 246.751 65.1414 247.266 66.0452 247.65L66.8275 245.81ZM65.0857 244.685C64.6176 244.201 64.2457 243.629 63.9715 242.96L62.1212 243.72C62.487 244.611 62.995 245.399 63.6469 246.075L65.0857 244.685ZM63.9797 242.981C63.728 242.327 63.5963 241.6 63.5963 240.79H61.5963C61.5963 241.82 61.7647 242.793 62.113 243.699L63.9797 242.981ZM63.5963 240.79C63.5963 239.927 63.7455 239.173 64.0267 238.511L62.186 237.729C61.7871 238.667 61.5963 239.693 61.5963 240.79H63.5963ZM64.0301 238.503C64.321 237.801 64.716 237.218 65.2113 236.739L63.8213 235.301C63.1167 235.982 62.5716 236.799 62.1826 237.737L64.0301 238.503ZM65.2113 236.739C65.7109 236.256 66.3065 235.876 67.0099 235.602L66.2828 233.738C65.3462 234.104 64.5218 234.624 63.8213 235.301L65.2113 236.739ZM67.0099 235.602C67.7039 235.331 68.4694 235.19 69.3163 235.19V233.19C68.2432 233.19 67.2287 233.369 66.2828 233.738L67.0099 235.602ZM69.3163 235.19C70.1636 235.19 70.9158 235.331 71.5849 235.598L72.3277 233.742C71.3968 233.369 70.389 233.19 69.3163 233.19V235.19ZM71.6052 235.606C72.2849 235.861 72.856 236.22 73.3317 236.679L74.7209 235.241C74.0367 234.58 73.2278 234.079 72.3074 233.734L71.6052 235.606ZM73.3317 236.679C73.8076 237.139 74.1812 237.692 74.4512 238.35L76.3015 237.59C75.9314 236.688 75.405 235.901 74.7209 235.241L73.3317 236.679ZM74.4547 238.358C74.7173 238.982 74.8563 239.688 74.8563 240.49H76.8563C76.8563 239.452 76.6753 238.478 76.298 237.582L74.4547 238.358ZM74.8563 240.49C74.8563 241.231 74.7276 241.955 74.4672 242.666L76.3454 243.354C76.6851 242.425 76.8563 241.469 76.8563 240.49H74.8563ZM74.4625 242.68C74.2284 243.348 73.8713 243.938 73.386 244.457L74.8466 245.823C75.5214 245.102 76.0242 244.272 76.3502 243.34L74.4625 242.68ZM73.3742 244.47C72.9156 244.977 72.3318 245.4 71.6042 245.729L72.4285 247.551C73.3808 247.12 74.197 246.543 74.8584 245.81L73.3742 244.47ZM71.5959 245.733C70.933 246.04 70.122 246.21 69.1363 246.21V248.21C70.3506 248.21 71.4596 248 72.4368 247.547L71.5959 245.733ZM68.9009 234.182C68.0443 234.229 67.2502 234.446 66.5402 234.852L67.5325 236.588C67.9425 236.354 68.4283 236.211 69.0118 236.178L68.9009 234.182ZM66.5507 234.846C65.8876 235.214 65.3225 235.707 64.8602 236.315L66.4525 237.525C66.7502 237.133 67.105 236.826 67.522 236.594L66.5507 234.846ZM64.8563 236.32C64.4244 236.896 64.0957 237.547 63.8646 238.263L65.768 238.877C65.9369 238.353 66.1682 237.904 66.4563 237.52L64.8563 236.32ZM63.856 238.291C63.6499 239.001 63.5463 239.725 63.5463 240.46H65.5463C65.5463 239.915 65.6227 239.379 65.7767 238.849L63.856 238.291ZM63.5463 240.46C63.5463 241.301 63.6716 242.122 63.9223 242.92L65.8303 242.32C65.6411 241.718 65.5463 241.099 65.5463 240.46H63.5463ZM63.9333 242.953C64.2072 243.729 64.5875 244.435 65.077 245.064L66.6557 243.836C66.3052 243.385 66.0255 242.871 65.8193 242.287L63.9333 242.953ZM65.0911 245.082C65.6129 245.722 66.2357 246.238 66.9557 246.622L67.8969 244.858C67.417 244.602 66.9998 244.258 66.6416 243.818L65.0911 245.082ZM66.9557 246.622C67.7131 247.026 68.547 247.22 69.4363 247.22V245.22C68.8456 245.22 68.3395 245.094 67.8969 244.858L66.9557 246.622ZM69.4363 247.22C70.3244 247.22 71.1503 247.027 71.8825 246.608L70.8902 244.872C70.5024 245.093 70.0283 245.22 69.4363 245.22V247.22ZM71.8694 246.616C72.5647 246.232 73.1535 245.732 73.6225 245.115L72.0302 243.905C71.7391 244.288 71.368 244.608 70.9032 244.864L71.8694 246.616ZM73.6337 245.1C74.0864 244.481 74.4177 243.792 74.629 243.041L72.7037 242.499C72.5549 243.028 72.3263 243.499 72.0189 243.92L73.6337 245.1ZM74.6208 243.068C74.8495 242.336 74.9663 241.596 74.9663 240.85H72.9663C72.9663 241.384 72.8831 241.924 72.7118 242.472L74.6208 243.068ZM74.9663 240.85C74.9663 240.087 74.8506 239.33 74.6233 238.58L72.7093 239.16C72.8821 239.73 72.9663 240.293 72.9663 240.85H74.9663ZM74.6257 238.588C74.3916 237.792 74.0254 237.069 73.5257 236.426L71.947 237.654C72.2872 238.091 72.541 238.588 72.707 239.152L74.6257 238.588ZM73.5363 236.44C73.025 235.758 72.3805 235.213 71.6155 234.807L70.6772 236.573C71.1921 236.847 71.6076 237.202 71.9363 237.64L73.5363 236.44ZM71.6272 234.813C70.8344 234.378 69.9328 234.18 68.9563 234.18V236.18C69.6598 236.18 70.2183 236.322 70.6655 236.567L71.6272 234.813ZM97.7994 245.59L96.8189 245.786L96.821 245.797L96.8233 245.807L97.7994 245.59ZM97.9794 246.1L97.085 246.547L97.085 246.547L97.9794 246.1ZM98.2494 246.52L97.4812 247.16L97.5103 247.195L97.5423 247.227L98.2494 246.52ZM98.6694 246.7H99.6694V245.7H98.6694V246.7ZM98.6694 247V248H99.6694V247H98.6694ZM94.7694 247H93.7694V248H94.7694V247ZM94.7694 246.7V245.7H93.7694V246.7H94.7694ZM95.1894 246.52L95.8966 247.227L95.8966 247.227L95.1894 246.52ZM95.4894 246.1L94.6414 245.57L94.6163 245.61L94.595 245.653L95.4894 246.1ZM95.6994 245.59L96.6756 245.807L96.6779 245.797L96.68 245.786L95.6994 245.59ZM95.5494 237.25L94.5879 237.525L94.5939 237.546L94.6008 237.566L95.5494 237.25ZM94.9794 236.17L94.2033 236.801L94.2134 236.813L94.2238 236.825L94.9794 236.17ZM94.0194 235.42L93.5537 236.305L93.5723 236.315L93.5914 236.324L94.0194 235.42ZM91.3194 235.51L91.8535 236.356L91.8644 236.348L91.3194 235.51ZM90.3594 236.41L89.5488 235.825L89.5378 235.84L89.5274 235.855L90.3594 236.41ZM89.8194 237.52L90.7681 237.836L90.7706 237.829L90.773 237.821L89.8194 237.52ZM89.6994 245.59L88.7189 245.786L88.721 245.797L88.7233 245.807L89.6994 245.59ZM89.8794 246.1L88.985 246.547L89.0063 246.59L89.0314 246.63L89.8794 246.1ZM90.1794 246.52L89.4112 247.16L89.4403 247.195L89.4723 247.227L90.1794 246.52ZM90.5994 246.7H91.5994V245.7H90.5994V246.7ZM90.5994 247V248H91.5994V247H90.5994ZM86.7294 247H85.7294V248H86.7294V247ZM86.7294 246.7V245.7H85.7294V246.7H86.7294ZM87.1194 246.52L87.8266 247.227L87.8266 247.227L87.1194 246.52ZM87.4194 246.1L86.5714 245.57L86.5463 245.61L86.525 245.653L87.4194 246.1ZM87.6294 245.59L88.6056 245.807L88.6079 245.797L88.61 245.786L87.6294 245.59ZM87.4194 237.07L86.485 237.426L86.4954 237.454L86.5075 237.48L87.4194 237.07ZM86.7294 236.02L86.0223 236.727L86.0345 236.739L86.0471 236.751L86.7294 236.02ZM85.7394 235.36L85.3333 236.274L85.3423 236.278L85.3514 236.282L85.7394 235.36ZM83.2494 235.42L82.8022 234.526L82.7929 234.53L82.7837 234.535L83.2494 235.42ZM82.2894 236.17L81.5338 235.515L81.5209 235.53L81.5086 235.545L82.2894 236.17ZM81.7194 237.16L80.7874 236.798L80.7817 236.812L80.7765 236.827L81.7194 237.16ZM81.5994 245.59L80.6189 245.786L80.621 245.797L80.6233 245.807L81.5994 245.59ZM81.7794 246.1L80.885 246.547L80.9063 246.59L80.9314 246.63L81.7794 246.1ZM82.0794 246.52L81.3112 247.16L81.3403 247.195L81.3723 247.227L82.0794 246.52ZM82.4994 246.7H83.4994V245.7H82.4994V246.7ZM82.4994 247V248H83.4994V247H82.4994ZM78.6294 247H77.6294V248H78.6294V247ZM78.6294 246.7V245.7H77.6294V246.7H78.6294ZM79.0194 246.52L79.7266 247.227L79.7266 247.227L79.0194 246.52ZM79.3194 246.1L78.4714 245.57L78.4463 245.61L78.425 245.653L79.3194 246.1ZM79.5294 245.59L80.5056 245.807L80.5079 245.797L80.51 245.786L79.5294 245.59ZM79.5594 236.5L80.5545 236.401L80.5545 236.401L79.5594 236.5ZM79.1394 235.48L78.4887 236.239L78.4887 236.239L79.1394 235.48ZM78.5694 235.3H77.5694V236.3H78.5694V235.3ZM78.5694 235.03L78.2532 234.081L77.5694 234.309V235.03H78.5694ZM81.5394 234.04H82.5394V232.653L81.2232 233.091L81.5394 234.04ZM81.5394 235.57H80.5394V238.215L82.2893 236.232L81.5394 235.57ZM82.7694 234.58L82.2596 233.72L82.2525 233.724L82.2453 233.728L82.7694 234.58ZM86.3694 234.34L86.7112 233.4L86.7112 233.4L86.3694 234.34ZM87.5094 234.97L86.8789 235.746L86.9051 235.767L86.9328 235.787L87.5094 234.97ZM88.9794 236.74L88.0971 237.211L88.9794 238.865L89.8618 237.211L88.9794 236.74ZM89.5494 235.84L90.3559 236.431L90.3649 236.419L90.3735 236.407L89.5494 235.84ZM90.3294 234.97L89.6989 234.194L89.6865 234.204L89.6745 234.214L90.3294 234.97ZM91.4394 234.34L91.0977 233.4L91.0906 233.403L91.0835 233.406L91.4394 234.34ZM95.6094 234.7L96.1394 233.852L96.1394 233.852L95.6094 234.7ZM97.0194 236.14L96.138 236.612L96.1444 236.624L96.1512 236.636L97.0194 236.14ZM97.6194 237.91L96.6277 238.038L96.6282 238.042L97.6194 237.91ZM96.7394 245.05C96.7394 245.291 96.7693 245.538 96.8189 245.786L98.78 245.394C98.7496 245.242 98.7394 245.129 98.7394 245.05H96.7394ZM96.8233 245.807C96.8804 246.064 96.9673 246.312 97.085 246.547L98.8739 245.653C98.8316 245.568 98.7984 245.476 98.7756 245.373L96.8233 245.807ZM97.085 246.547C97.1946 246.766 97.3253 246.973 97.4812 247.16L99.0177 245.88C98.9736 245.827 98.9243 245.754 98.8739 245.653L97.085 246.547ZM97.5423 247.227C97.8372 247.522 98.2269 247.7 98.6694 247.7V245.7C98.7179 245.7 98.7776 245.71 98.8384 245.736C98.8979 245.761 98.9369 245.793 98.9566 245.813L97.5423 247.227ZM97.6694 246.7V247H99.6694V246.7H97.6694ZM98.6694 246H94.7694V248H98.6694V246ZM95.7694 247V246.7H93.7694V247H95.7694ZM94.7694 247.7C95.212 247.7 95.6016 247.522 95.8966 247.227L94.4823 245.813C94.502 245.793 94.541 245.761 94.6005 245.736C94.6612 245.71 94.721 245.7 94.7694 245.7V247.7ZM95.8966 247.227C96.0966 247.027 96.2584 246.798 96.3839 246.547L94.595 245.653C94.5605 245.722 94.5223 245.773 94.4823 245.813L95.8966 247.227ZM96.3374 246.63C96.4962 246.376 96.6104 246.1 96.6756 245.807L94.7233 245.373C94.7085 245.44 94.6827 245.504 94.6414 245.57L96.3374 246.63ZM96.68 245.786C96.7296 245.538 96.7594 245.291 96.7594 245.05H94.7594C94.7594 245.129 94.7493 245.242 94.7189 245.394L96.68 245.786ZM96.7594 245.05V238.57H94.7594V245.05H96.7594ZM96.7594 238.57C96.7594 238.007 96.6734 237.46 96.4981 236.934L94.6008 237.566C94.7055 237.88 94.7594 238.213 94.7594 238.57H96.7594ZM96.511 236.975C96.355 236.429 96.0999 235.936 95.7351 235.515L94.2238 236.825C94.379 237.004 94.5039 237.231 94.5879 237.525L96.511 236.975ZM95.7556 235.539C95.3995 235.101 94.9597 234.759 94.4475 234.516L93.5914 236.324C93.8392 236.441 94.0394 236.599 94.2033 236.801L95.7556 235.539ZM94.4852 234.535C93.9453 234.251 93.3523 234.12 92.7294 234.12V236.12C93.0666 236.12 93.3335 236.189 93.5537 236.305L94.4852 234.535ZM92.7294 234.12C92.0223 234.12 91.3574 234.293 90.7745 234.672L91.8644 236.348C92.0815 236.207 92.3566 236.12 92.7294 236.12V234.12ZM90.7855 234.665C90.2988 234.972 89.8845 235.36 89.5488 235.825L91.1701 236.996C91.3544 236.74 91.5801 236.528 91.8534 236.356L90.7855 234.665ZM89.5274 235.855C89.2396 236.287 89.0165 236.742 88.8659 237.219L90.773 237.821C90.8623 237.538 90.9993 237.253 91.1915 236.965L89.5274 235.855ZM88.8708 237.204C88.7341 237.614 88.6394 238.029 88.6394 238.42H90.6394C90.6394 238.331 90.6648 238.146 90.7681 237.836L88.8708 237.204ZM88.6394 238.42V245.05H90.6394V238.42H88.6394ZM88.6394 245.05C88.6394 245.291 88.6693 245.538 88.7189 245.786L90.68 245.394C90.6496 245.242 90.6394 245.129 90.6394 245.05H88.6394ZM88.7233 245.807C88.7804 246.064 88.8673 246.312 88.985 246.547L90.7739 245.653C90.7316 245.568 90.6984 245.476 90.6756 245.373L88.7233 245.807ZM89.0314 246.63C89.1507 246.821 89.2769 246.999 89.4112 247.16L90.9477 245.88C90.882 245.801 90.8081 245.699 90.7274 245.57L89.0314 246.63ZM89.4723 247.227C89.7673 247.522 90.1569 247.7 90.5994 247.7V245.7C90.6479 245.7 90.7076 245.71 90.7684 245.736C90.8279 245.761 90.8669 245.793 90.8866 245.813L89.4723 247.227ZM89.5994 246.7V247H91.5994V246.7H89.5994ZM90.5994 246H86.7294V248H90.5994V246ZM87.7294 247V246.7H85.7294V247H87.7294ZM86.7294 247.7C87.1892 247.7 87.5615 247.492 87.8266 247.227L86.4123 245.813C86.4207 245.805 86.453 245.775 86.5129 245.747C86.5762 245.718 86.6514 245.7 86.7294 245.7V247.7ZM87.8266 247.227C88.0266 247.027 88.1884 246.798 88.3139 246.547L86.525 245.653C86.4905 245.722 86.4523 245.773 86.4123 245.813L87.8266 247.227ZM88.2674 246.63C88.4262 246.376 88.5404 246.1 88.6056 245.807L86.6533 245.373C86.6385 245.44 86.6127 245.504 86.5714 245.57L88.2674 246.63ZM88.61 245.786C88.6596 245.538 88.6894 245.291 88.6894 245.05H86.6894C86.6894 245.129 86.6793 245.242 86.6489 245.394L88.61 245.786ZM88.6894 245.05V238.39H86.6894V245.05H88.6894ZM88.6894 238.39C88.6894 237.782 88.5747 237.2 88.3314 236.66L86.5075 237.48C86.6242 237.74 86.6894 238.038 86.6894 238.39H88.6894ZM88.3539 236.714C88.1449 236.165 87.8337 235.683 87.4118 235.289L86.0471 236.751C86.2252 236.917 86.374 237.135 86.485 237.426L88.3539 236.714ZM87.4366 235.313C87.0613 234.938 86.6217 234.646 86.1275 234.438L85.3514 236.282C85.6172 236.394 85.8376 236.542 86.0223 236.727L87.4366 235.313ZM86.1456 234.446C85.6625 234.232 85.1545 234.12 84.6294 234.12V236.12C84.8644 236.12 85.0964 236.169 85.3333 236.274L86.1456 234.446ZM84.6294 234.12C83.9794 234.12 83.362 234.246 82.8022 234.526L83.6967 236.314C83.9369 236.194 84.2394 236.12 84.6294 236.12V234.12ZM82.7837 234.535C82.3026 234.788 81.8817 235.114 81.5338 235.515L83.0451 236.825C83.2172 236.626 83.4363 236.452 83.7152 236.305L82.7837 234.535ZM81.5086 235.545C81.2048 235.925 80.964 236.344 80.7874 236.798L82.6515 237.522C82.7549 237.257 82.8941 237.015 83.0703 236.795L81.5086 235.545ZM80.7765 236.827C80.6235 237.261 80.5394 237.703 80.5394 238.15H82.5394C82.5394 237.957 82.5754 237.739 82.6624 237.493L80.7765 236.827ZM80.5394 238.15V245.05H82.5394V238.15H80.5394ZM80.5394 245.05C80.5394 245.291 80.5693 245.538 80.6189 245.786L82.58 245.394C82.5496 245.242 82.5394 245.129 82.5394 245.05H80.5394ZM80.6233 245.807C80.6804 246.064 80.7673 246.312 80.885 246.547L82.6739 245.653C82.6316 245.568 82.5984 245.476 82.5756 245.373L80.6233 245.807ZM80.9314 246.63C81.0507 246.821 81.1769 246.999 81.3112 247.16L82.8477 245.88C82.782 245.801 82.7081 245.699 82.6274 245.57L80.9314 246.63ZM81.3723 247.227C81.6673 247.522 82.0569 247.7 82.4994 247.7V245.7C82.5479 245.7 82.6076 245.71 82.6684 245.736C82.7279 245.761 82.7668 245.793 82.7866 245.813L81.3723 247.227ZM81.4994 246.7V247H83.4994V246.7H81.4994ZM82.4994 246H78.6294V248H82.4994V246ZM79.6294 247V246.7H77.6294V247H79.6294ZM78.6294 247.7C79.0892 247.7 79.4615 247.492 79.7266 247.227L78.3123 245.813C78.3207 245.805 78.353 245.775 78.4129 245.747C78.4762 245.718 78.5514 245.7 78.6294 245.7V247.7ZM79.7266 247.227C79.9266 247.027 80.0884 246.798 80.2139 246.547L78.425 245.653C78.3905 245.722 78.3523 245.773 78.3123 245.813L79.7266 247.227ZM80.1674 246.63C80.3262 246.376 80.4404 246.1 80.5056 245.807L78.5533 245.373C78.5385 245.44 78.5127 245.504 78.4714 245.57L80.1674 246.63ZM80.51 245.786C80.5596 245.538 80.5894 245.291 80.5894 245.05H78.5894C78.5894 245.129 78.5793 245.242 78.5489 245.394L80.51 245.786ZM80.5894 245.05V237.04H78.5894V245.05H80.5894ZM80.5894 237.04C80.5894 236.84 80.577 236.626 80.5545 236.401L78.5644 236.6C78.5819 236.774 78.5894 236.92 78.5894 237.04H80.5894ZM80.5545 236.401C80.5275 236.131 80.4729 235.868 80.3881 235.614L78.4908 236.246C78.526 236.352 78.5513 236.469 78.5644 236.6L80.5545 236.401ZM80.3881 235.614C80.2726 235.267 80.072 234.962 79.7902 234.721L78.4887 236.239C78.4901 236.24 78.4902 236.241 78.4895 236.24C78.4889 236.239 78.4881 236.238 78.4874 236.237C78.4867 236.236 78.4867 236.236 78.4871 236.237C78.4876 236.238 78.489 236.241 78.4908 236.246L80.3881 235.614ZM79.7902 234.721C79.4202 234.404 78.9748 234.3 78.5694 234.3V236.3C78.6075 236.3 78.6108 236.305 78.5908 236.299C78.5678 236.291 78.5289 236.274 78.4887 236.239L79.7902 234.721ZM79.5694 235.3V235.03H77.5694V235.3H79.5694ZM78.8857 235.979L81.8557 234.989L81.2232 233.091L78.2532 234.081L78.8857 235.979ZM80.5394 234.04V235.57H82.5394V234.04H80.5394ZM82.2893 236.232C82.5057 235.986 82.8306 235.717 83.2935 235.432L82.2453 233.728C81.6683 234.083 81.1732 234.474 80.7896 234.908L82.2893 236.232ZM83.2792 235.44C83.618 235.24 84.1251 235.1 84.8694 235.1V233.1C83.8938 233.1 83.0009 233.28 82.2596 233.72L83.2792 235.44ZM84.8694 235.1C85.3351 235.1 85.7164 235.167 86.0277 235.28L86.7112 233.4C86.1425 233.193 85.5238 233.1 84.8694 233.1V235.1ZM86.0277 235.28C86.377 235.407 86.6562 235.565 86.8789 235.746L88.14 234.194C87.7227 233.855 87.2419 233.593 86.7112 233.4L86.0277 235.28ZM86.9328 235.787C87.1909 235.969 87.4046 236.177 87.5794 236.41L89.1794 235.21C88.8743 234.803 88.508 234.451 88.0861 234.153L86.9328 235.787ZM87.5794 236.41C87.7939 236.696 87.965 236.963 88.0971 237.211L89.8618 236.269C89.6739 235.917 89.445 235.564 89.1794 235.21L87.5794 236.41ZM89.8618 237.211C89.9974 236.956 90.1614 236.697 90.3559 236.431L88.743 235.249C88.4975 235.584 88.2815 235.924 88.0971 236.269L89.8618 237.211ZM90.3735 236.407C90.5443 236.158 90.7471 235.931 90.9844 235.726L89.6745 234.214C89.3118 234.529 88.9946 234.882 88.7254 235.273L90.3735 236.407ZM90.96 235.746C91.1904 235.559 91.4659 235.4 91.7954 235.275L91.0835 233.406C90.573 233.6 90.1085 233.861 89.6989 234.194L90.96 235.746ZM91.7812 235.28C92.089 235.168 92.4792 235.1 92.9694 235.1V233.1C92.2997 233.1 91.6699 233.192 91.0977 233.4L91.7812 235.28ZM92.9694 235.1C93.987 235.1 94.6576 235.284 95.0794 235.548L96.1394 233.852C95.2813 233.316 94.1919 233.1 92.9694 233.1V235.1ZM95.0794 235.548C95.5994 235.873 95.9346 236.233 96.138 236.612L97.9009 235.668C97.5043 234.927 96.8995 234.327 96.1394 233.852L95.0794 235.548ZM96.1512 236.636C96.4085 237.086 96.5649 237.552 96.6277 238.038L98.6112 237.782C98.514 237.028 98.2704 236.314 97.8877 235.644L96.1512 236.636ZM96.6282 238.042C96.7047 238.616 96.7394 239.079 96.7394 239.44H98.7394C98.7394 238.961 98.6942 238.404 98.6107 237.778L96.6282 238.042ZM96.7394 239.44V245.05H98.7394V239.44H96.7394ZM101.713 246.7V245.7H100.713V246.7H101.713ZM102.253 246.52L102.96 247.227L102.96 247.227L102.253 246.52ZM102.553 246.1L101.705 245.57L101.679 245.61L101.658 245.653L102.553 246.1ZM102.763 245.59L103.739 245.807L103.741 245.797L103.743 245.786L102.763 245.59ZM102.283 227.68L101.575 228.387L101.608 228.419L101.642 228.448L102.283 227.68ZM101.713 227.5H100.713V228.5H101.713V227.5ZM101.713 227.2V226.2H100.713V227.2H101.713ZM111.763 228.04L111.356 228.954L111.369 228.959L111.763 228.04ZM114.943 230.26L114.205 230.935L114.212 230.943L114.22 230.951L114.943 230.26ZM116.983 240.79L117.918 241.145L117.92 241.139L116.983 240.79ZM115.003 243.91L114.28 243.219L114.28 243.219L115.003 243.91ZM111.703 246.16L112.093 247.081L112.105 247.076L111.703 246.16ZM101.713 247H100.713V248H101.713V247ZM114.913 234.01L115.84 233.636L115.84 233.636L114.913 234.01ZM112.963 231.04L112.239 231.73L112.247 231.739L112.255 231.747L112.963 231.04ZM110.023 229L109.615 229.913L109.621 229.916L110.023 229ZM104.833 228.25V227.25H103.833V228.25H104.833ZM104.833 245.95H103.833V246.95H104.833V245.95ZM109.663 245.47L109.947 246.429L109.958 246.425L109.663 245.47ZM112.633 243.94L113.244 244.731L113.255 244.723L112.633 243.94ZM114.763 241.33L113.882 240.856L113.879 240.863L113.875 240.869L114.763 241.33ZM101.713 247.7H101.863V245.7H101.713V247.7ZM101.863 247.7C102.322 247.7 102.695 247.492 102.96 247.227L101.545 245.813C101.554 245.805 101.586 245.775 101.646 245.747C101.709 245.718 101.785 245.7 101.863 245.7V247.7ZM102.96 247.227C103.16 247.027 103.322 246.798 103.447 246.547L101.658 245.653C101.624 245.722 101.585 245.773 101.545 245.813L102.96 247.227ZM103.401 246.63C103.559 246.376 103.674 246.1 103.739 245.807L101.786 245.373C101.772 245.44 101.746 245.504 101.705 245.57L103.401 246.63ZM103.743 245.786C103.793 245.538 103.823 245.291 103.823 245.05H101.823C101.823 245.129 101.812 245.242 101.782 245.394L103.743 245.786ZM103.823 245.05V229.06H101.823V245.05H103.823ZM103.823 229.06C103.823 228.828 103.79 228.593 103.739 228.363L101.786 228.797C101.815 228.927 101.823 229.012 101.823 229.06H103.823ZM103.739 228.363C103.682 228.106 103.595 227.858 103.477 227.623L101.688 228.517C101.73 228.602 101.764 228.694 101.786 228.797L103.739 228.363ZM103.477 227.623C103.344 227.357 103.163 227.112 102.923 226.912L101.642 228.448C101.643 228.449 101.648 228.453 101.655 228.462C101.663 228.472 101.674 228.489 101.688 228.517L103.477 227.623ZM102.99 226.973C102.695 226.678 102.305 226.5 101.863 226.5V228.5C101.814 228.5 101.754 228.49 101.694 228.464C101.634 228.439 101.595 228.407 101.575 228.387L102.99 226.973ZM101.863 226.5H101.713V228.5H101.863V226.5ZM102.713 227.5V227.2H100.713V227.5H102.713ZM101.713 228.2H107.503V226.2H101.713V228.2ZM107.503 228.2C108.963 228.2 110.242 228.458 111.356 228.954L112.169 227.126C110.763 226.502 109.202 226.2 107.503 226.2V228.2ZM111.369 228.959C112.508 229.447 113.448 230.108 114.205 230.935L115.68 229.585C114.717 228.532 113.537 227.713 112.156 227.121L111.369 228.959ZM114.22 230.951C115.007 231.774 115.606 232.721 116.019 233.798L117.886 233.082C117.379 231.759 116.638 230.586 115.665 229.569L114.22 230.951ZM116.019 233.798C116.435 234.882 116.643 236.011 116.643 237.19H118.643C118.643 235.769 118.391 234.398 117.886 233.082L116.019 233.798ZM116.643 237.19C116.643 238.287 116.445 239.369 116.046 240.441L117.92 241.139C118.4 239.851 118.643 238.533 118.643 237.19H116.643ZM116.048 240.435C115.656 241.467 115.07 242.393 114.28 243.219L115.725 244.601C116.695 243.587 117.429 242.433 117.918 241.145L116.048 240.435ZM114.28 243.219C113.502 244.032 112.516 244.71 111.3 245.244L112.105 247.076C113.529 246.45 114.743 245.628 115.725 244.601L114.28 243.219ZM111.312 245.239C110.139 245.737 108.746 246 107.113 246V248C108.959 248 110.626 247.703 112.093 247.081L111.312 245.239ZM107.113 246H101.713V248H107.113V246ZM102.713 247V246.7H100.713V247H102.713ZM116.603 237.64C116.603 236.237 116.35 234.9 115.84 233.636L113.985 234.384C114.395 235.4 114.603 236.483 114.603 237.64H116.603ZM115.84 233.636C115.331 232.376 114.608 231.271 113.67 230.333L112.255 231.747C112.997 232.489 113.574 233.364 113.985 234.384L115.84 233.636ZM113.686 230.35C112.771 229.39 111.68 228.635 110.424 228.084L109.621 229.916C110.646 230.365 111.515 230.97 112.239 231.73L113.686 230.35ZM110.43 228.087C109.172 227.525 107.812 227.25 106.363 227.25V229.25C107.553 229.25 108.633 229.475 109.615 229.913L110.43 228.087ZM106.363 227.25H104.833V229.25H106.363V227.25ZM103.833 228.25V245.95H105.833V228.25H103.833ZM104.833 246.95H106.423V244.95H104.833V246.95ZM106.423 246.95C107.603 246.95 108.778 246.775 109.947 246.429L109.378 244.511C108.387 244.805 107.402 244.95 106.423 244.95V246.95ZM109.958 246.425C111.168 246.051 112.266 245.487 113.244 244.731L112.021 243.149C111.239 243.753 110.357 244.209 109.367 244.515L109.958 246.425ZM113.255 244.723C114.25 243.931 115.048 242.95 115.65 241.791L113.875 240.869C113.397 241.79 112.775 242.549 112.01 243.157L113.255 244.723ZM115.643 241.804C116.296 240.592 116.603 239.192 116.603 237.64H114.603C114.603 238.928 114.349 239.988 113.882 240.856L115.643 241.804ZM123.829 246.73L123.438 247.65L123.448 247.655L123.458 247.658L123.829 246.73ZM121.759 245.38L121.039 246.075L121.052 246.087L121.064 246.099L121.759 245.38ZM120.439 243.34L119.506 243.699L119.51 243.709L119.514 243.72L120.439 243.34ZM120.499 238.12L121.419 238.511L121.423 238.503L120.499 238.12ZM121.909 236.02L121.214 235.301L121.214 235.301L121.909 236.02ZM124.039 234.67L123.675 233.738L123.675 233.738L124.039 234.67ZM129.349 234.67L128.978 235.598L128.988 235.603L128.998 235.606L129.349 234.67ZM131.419 235.96L132.113 235.241L131.419 235.96ZM132.769 237.97L131.844 238.35L131.847 238.358L132.769 237.97ZM132.799 243.01L131.86 242.666L131.855 242.68L132.799 243.01ZM131.509 245.14L130.779 244.457L130.773 244.463L130.767 244.47L131.509 245.14ZM129.409 246.64L128.997 245.729L128.988 245.733L129.409 246.64ZM126.349 235.18V234.18H126.321L126.293 234.182L126.349 235.18ZM124.429 235.72L124.915 236.594L124.925 236.588L124.429 235.72ZM123.049 236.92L122.253 236.315L122.249 236.32L123.049 236.92ZM122.209 238.57L121.257 238.263L121.253 238.277L121.249 238.291L122.209 238.57ZM122.269 242.62L121.315 242.92L121.32 242.936L121.326 242.953L122.269 242.62ZM123.259 244.45L122.47 245.064L122.477 245.073L122.484 245.082L123.259 244.45ZM124.819 245.74L125.289 244.858L125.289 244.858L124.819 245.74ZM128.779 245.74L128.296 244.864L128.289 244.868L128.283 244.872L128.779 245.74ZM130.219 244.51L131.015 245.115L131.021 245.108L131.026 245.1L130.219 244.51ZM131.059 242.77L130.104 242.472L130.1 242.485L130.096 242.499L131.059 242.77ZM131.059 238.87L130.1 239.152L130.102 239.16L131.059 238.87ZM130.129 237.04L129.329 237.64L129.334 237.647L129.34 237.654L130.129 237.04ZM128.539 235.69L128.058 236.567L128.07 236.573L128.539 235.69ZM126.529 246.21C125.636 246.21 124.865 246.067 124.2 245.802L123.458 247.658C124.393 248.033 125.422 248.21 126.529 248.21V246.21ZM124.22 245.81C123.524 245.514 122.939 245.129 122.453 244.661L121.064 246.099C121.739 246.751 122.534 247.266 123.438 247.65L124.22 245.81ZM122.478 244.685C122.01 244.201 121.638 243.629 121.364 242.96L119.514 243.72C119.88 244.611 120.388 245.399 121.039 246.075L122.478 244.685ZM121.372 242.981C121.121 242.327 120.989 241.6 120.989 240.79H118.989C118.989 241.82 119.157 242.793 119.506 243.699L121.372 242.981ZM120.989 240.79C120.989 239.927 121.138 239.173 121.419 238.511L119.579 237.729C119.18 238.667 118.989 239.693 118.989 240.79H120.989ZM121.423 238.503C121.714 237.801 122.109 237.218 122.604 236.739L121.214 235.301C120.509 235.982 119.964 236.799 119.575 237.737L121.423 238.503ZM122.604 236.739C123.103 236.256 123.699 235.876 124.402 235.602L123.675 233.738C122.739 234.104 121.914 234.624 121.214 235.301L122.604 236.739ZM124.402 235.602C125.096 235.331 125.862 235.19 126.709 235.19V233.19C125.636 233.19 124.621 233.369 123.675 233.738L124.402 235.602ZM126.709 235.19C127.556 235.19 128.308 235.331 128.978 235.598L129.72 233.742C128.789 233.369 127.782 233.19 126.709 233.19V235.19ZM128.998 235.606C129.677 235.861 130.249 236.22 130.724 236.679L132.113 235.241C131.429 234.58 130.62 234.079 129.7 233.734L128.998 235.606ZM130.724 236.679C131.2 237.139 131.574 237.692 131.844 238.35L133.694 237.59C133.324 236.688 132.798 235.901 132.113 235.241L130.724 236.679ZM131.847 238.358C132.11 238.982 132.249 239.688 132.249 240.49H134.249C134.249 239.452 134.068 238.478 133.691 237.582L131.847 238.358ZM132.249 240.49C132.249 241.231 132.12 241.955 131.86 242.666L133.738 243.354C134.078 242.425 134.249 241.469 134.249 240.49H132.249ZM131.855 242.68C131.621 243.348 131.264 243.938 130.779 244.457L132.239 245.823C132.914 245.102 133.417 244.272 133.743 243.34L131.855 242.68ZM130.767 244.47C130.308 244.977 129.724 245.4 128.997 245.729L129.821 247.551C130.773 247.12 131.59 246.543 132.251 245.81L130.767 244.47ZM128.988 245.733C128.326 246.04 127.515 246.21 126.529 246.21V248.21C127.743 248.21 128.852 248 129.829 247.547L128.988 245.733ZM126.293 234.182C125.437 234.229 124.643 234.446 123.933 234.852L124.925 236.588C125.335 236.354 125.821 236.211 126.404 236.178L126.293 234.182ZM123.943 234.846C123.28 235.214 122.715 235.707 122.253 236.315L123.845 237.525C124.143 237.133 124.498 236.826 124.915 236.594L123.943 234.846ZM122.249 236.32C121.817 236.896 121.488 237.547 121.257 238.263L123.161 238.877C123.33 238.353 123.561 237.904 123.849 237.52L122.249 236.32ZM121.249 238.291C121.042 239.001 120.939 239.725 120.939 240.46H122.939C122.939 239.915 123.015 239.379 123.169 238.849L121.249 238.291ZM120.939 240.46C120.939 241.301 121.064 242.122 121.315 242.92L123.223 242.32C123.034 241.718 122.939 241.099 122.939 240.46H120.939ZM121.326 242.953C121.6 243.729 121.98 244.435 122.47 245.064L124.048 243.836C123.698 243.385 123.418 242.871 123.212 242.287L121.326 242.953ZM122.484 245.082C123.005 245.722 123.628 246.238 124.348 246.622L125.289 244.858C124.81 244.602 124.392 244.258 124.034 243.818L122.484 245.082ZM124.348 246.622C125.106 247.026 125.94 247.22 126.829 247.22V245.22C126.238 245.22 125.732 245.094 125.289 244.858L124.348 246.622ZM126.829 247.22C127.717 247.22 128.543 247.027 129.275 246.608L128.283 244.872C127.895 245.093 127.421 245.22 126.829 245.22V247.22ZM129.262 246.616C129.957 246.232 130.546 245.732 131.015 245.115L129.423 243.905C129.132 244.288 128.761 244.608 128.296 244.864L129.262 246.616ZM131.026 245.1C131.479 244.481 131.81 243.792 132.022 243.041L130.096 242.499C129.947 243.028 129.719 243.499 129.412 243.92L131.026 245.1ZM132.013 243.068C132.242 242.336 132.359 241.596 132.359 240.85H130.359C130.359 241.384 130.276 241.924 130.104 242.472L132.013 243.068ZM132.359 240.85C132.359 240.087 132.243 239.33 132.016 238.58L130.102 239.16C130.275 239.73 130.359 240.293 130.359 240.85H132.359ZM132.018 238.588C131.784 237.792 131.418 237.069 130.918 236.426L129.34 237.654C129.68 238.091 129.934 238.588 130.1 239.152L132.018 238.588ZM130.929 236.44C130.418 235.758 129.773 235.213 129.008 234.807L128.07 236.573C128.585 236.847 129 237.202 129.329 237.64L130.929 236.44ZM129.02 234.813C128.227 234.378 127.325 234.18 126.349 234.18V236.18C127.052 236.18 127.611 236.322 128.058 236.567L129.02 234.813ZM155.192 245.59L154.211 245.786L154.214 245.797L154.216 245.807L155.192 245.59ZM155.372 246.1L154.478 246.547L154.478 246.547L155.372 246.1ZM155.642 246.52L154.874 247.16L154.903 247.195L154.935 247.227L155.642 246.52ZM156.062 246.7H157.062V245.7H156.062V246.7ZM156.062 247V248H157.062V247H156.062ZM152.162 247H151.162V248H152.162V247ZM152.162 246.7V245.7H151.162V246.7H152.162ZM152.582 246.52L153.289 247.227L153.289 247.227L152.582 246.52ZM152.882 246.1L152.034 245.57L152.009 245.61L151.988 245.653L152.882 246.1ZM153.092 245.59L154.068 245.807L154.071 245.797L154.073 245.786L153.092 245.59ZM152.942 237.25L151.981 237.525L151.986 237.546L151.993 237.566L152.942 237.25ZM152.372 236.17L151.596 236.801L151.606 236.813L151.616 236.825L152.372 236.17ZM151.412 235.42L150.946 236.305L150.965 236.315L150.984 236.324L151.412 235.42ZM148.712 235.51L149.246 236.356L149.257 236.348L148.712 235.51ZM147.752 236.41L146.941 235.825L146.93 235.84L146.92 235.855L147.752 236.41ZM147.212 237.52L148.161 237.836L148.163 237.829L148.166 237.821L147.212 237.52ZM147.092 245.59L146.111 245.786L146.114 245.797L146.116 245.807L147.092 245.59ZM147.272 246.1L146.378 246.547L146.399 246.59L146.424 246.63L147.272 246.1ZM147.572 246.52L146.804 247.16L146.833 247.195L146.865 247.227L147.572 246.52ZM147.992 246.7H148.992V245.7H147.992V246.7ZM147.992 247V248H148.992V247H147.992ZM144.122 247H143.122V248H144.122V247ZM144.122 246.7V245.7H143.122V246.7H144.122ZM144.512 246.52L145.219 247.227L145.219 247.227L144.512 246.52ZM144.812 246.1L143.964 245.57L143.939 245.61L143.918 245.653L144.812 246.1ZM145.022 245.59L145.998 245.807L146.001 245.797L146.003 245.786L145.022 245.59ZM144.812 237.07L143.878 237.426L143.888 237.454L143.9 237.48L144.812 237.07ZM144.122 236.02L143.415 236.727L143.427 236.739L143.44 236.751L144.122 236.02ZM143.132 235.36L142.726 236.274L142.735 236.278L142.744 236.282L143.132 235.36ZM140.642 235.42L140.195 234.526L140.185 234.53L140.176 234.535L140.642 235.42ZM139.682 236.17L138.926 235.515L138.913 235.53L138.901 235.545L139.682 236.17ZM139.112 237.16L138.18 236.798L138.174 236.812L138.169 236.827L139.112 237.16ZM138.992 245.59L138.011 245.786L138.014 245.797L138.016 245.807L138.992 245.59ZM139.172 246.1L138.278 246.547L138.299 246.59L138.324 246.63L139.172 246.1ZM139.472 246.52L138.704 247.16L138.733 247.195L138.765 247.227L139.472 246.52ZM139.892 246.7H140.892V245.7H139.892V246.7ZM139.892 247V248H140.892V247H139.892ZM136.022 247H135.022V248H136.022V247ZM136.022 246.7V245.7H135.022V246.7H136.022ZM136.412 246.52L137.119 247.227L137.119 247.227L136.412 246.52ZM136.712 246.1L135.864 245.57L135.839 245.61L135.818 245.653L136.712 246.1ZM136.922 245.59L137.898 245.807L137.901 245.797L137.903 245.786L136.922 245.59ZM136.952 236.5L137.947 236.401L137.947 236.401L136.952 236.5ZM136.532 235.48L135.881 236.239L135.881 236.239L136.532 235.48ZM135.962 235.3H134.962V236.3H135.962V235.3ZM135.962 235.03L135.646 234.081L134.962 234.309V235.03H135.962ZM138.932 234.04H139.932V232.653L138.616 233.091L138.932 234.04ZM138.932 235.57H137.932V238.215L139.682 236.232L138.932 235.57ZM140.162 234.58L139.652 233.72L139.645 233.724L139.638 233.728L140.162 234.58ZM143.762 234.34L144.104 233.4L144.104 233.4L143.762 234.34ZM144.902 234.97L144.271 235.746L144.298 235.767L144.325 235.787L144.902 234.97ZM146.372 236.74L145.49 237.211L146.372 238.865L147.254 237.211L146.372 236.74ZM146.942 235.84L147.748 236.431L147.757 236.419L147.766 236.407L146.942 235.84ZM147.722 234.97L147.091 234.194L147.079 234.204L147.067 234.214L147.722 234.97ZM148.832 234.34L148.49 233.4L148.483 233.403L148.476 233.406L148.832 234.34ZM153.002 234.7L153.532 233.852L153.532 233.852L153.002 234.7ZM154.412 236.14L153.531 236.612L153.537 236.624L153.544 236.636L154.412 236.14ZM155.012 237.91L154.02 238.038L154.021 238.042L155.012 237.91ZM154.132 245.05C154.132 245.291 154.162 245.538 154.211 245.786L156.173 245.394C156.142 245.242 156.132 245.129 156.132 245.05H154.132ZM154.216 245.807C154.273 246.064 154.36 246.312 154.478 246.547L156.266 245.653C156.224 245.568 156.191 245.476 156.168 245.373L154.216 245.807ZM154.478 246.547C154.587 246.766 154.718 246.973 154.874 247.16L156.41 245.88C156.366 245.827 156.317 245.754 156.266 245.653L154.478 246.547ZM154.935 247.227C155.23 247.522 155.619 247.7 156.062 247.7V245.7C156.11 245.7 156.17 245.71 156.231 245.736C156.291 245.761 156.329 245.793 156.349 245.813L154.935 247.227ZM155.062 246.7V247H157.062V246.7H155.062ZM156.062 246H152.162V248H156.062V246ZM153.162 247V246.7H151.162V247H153.162ZM152.162 247.7C152.605 247.7 152.994 247.522 153.289 247.227L151.875 245.813C151.895 245.793 151.934 245.761 151.993 245.736C152.054 245.71 152.114 245.7 152.162 245.7V247.7ZM153.289 247.227C153.489 247.027 153.651 246.798 153.776 246.547L151.988 245.653C151.953 245.722 151.915 245.773 151.875 245.813L153.289 247.227ZM153.73 246.63C153.889 246.376 154.003 246.1 154.068 245.807L152.116 245.373C152.101 245.44 152.075 245.504 152.034 245.57L153.73 246.63ZM154.073 245.786C154.122 245.538 154.152 245.291 154.152 245.05H152.152C152.152 245.129 152.142 245.242 152.111 245.394L154.073 245.786ZM154.152 245.05V238.57H152.152V245.05H154.152ZM154.152 238.57C154.152 238.007 154.066 237.46 153.891 236.934L151.993 237.566C152.098 237.88 152.152 238.213 152.152 238.57H154.152ZM153.904 236.975C153.748 236.429 153.492 235.936 153.128 235.515L151.616 236.825C151.772 237.004 151.897 237.231 151.981 237.525L153.904 236.975ZM153.148 235.539C152.792 235.101 152.352 234.759 151.84 234.516L150.984 236.324C151.232 236.441 151.432 236.599 151.596 236.801L153.148 235.539ZM151.878 234.535C151.338 234.251 150.745 234.12 150.122 234.12V236.12C150.459 236.12 150.726 236.189 150.946 236.305L151.878 234.535ZM150.122 234.12C149.415 234.12 148.75 234.293 148.167 234.672L149.257 236.348C149.474 236.207 149.749 236.12 150.122 236.12V234.12ZM148.178 234.665C147.691 234.972 147.277 235.36 146.941 235.825L148.563 236.996C148.747 236.74 148.973 236.528 149.246 236.356L148.178 234.665ZM146.92 235.855C146.632 236.287 146.409 236.742 146.258 237.219L148.166 237.821C148.255 237.538 148.392 237.253 148.584 236.965L146.92 235.855ZM146.263 237.204C146.127 237.614 146.032 238.029 146.032 238.42H148.032C148.032 238.331 148.057 238.146 148.161 237.836L146.263 237.204ZM146.032 238.42V245.05H148.032V238.42H146.032ZM146.032 245.05C146.032 245.291 146.062 245.538 146.111 245.786L148.073 245.394C148.042 245.242 148.032 245.129 148.032 245.05H146.032ZM146.116 245.807C146.173 246.064 146.26 246.312 146.378 246.547L148.166 245.653C148.124 245.568 148.091 245.476 148.068 245.373L146.116 245.807ZM146.424 246.63C146.543 246.821 146.67 246.999 146.804 247.16L148.34 245.88C148.275 245.801 148.201 245.699 148.12 245.57L146.424 246.63ZM146.865 247.227C147.16 247.522 147.549 247.7 147.992 247.7V245.7C148.04 245.7 148.1 245.71 148.161 245.736C148.221 245.761 148.259 245.793 148.279 245.813L146.865 247.227ZM146.992 246.7V247H148.992V246.7H146.992ZM147.992 246H144.122V248H147.992V246ZM145.122 247V246.7H143.122V247H145.122ZM144.122 247.7C144.582 247.7 144.954 247.492 145.219 247.227L143.805 245.813C143.813 245.805 143.846 245.775 143.905 245.747C143.969 245.718 144.044 245.7 144.122 245.7V247.7ZM145.219 247.227C145.419 247.027 145.581 246.798 145.706 246.547L143.918 245.653C143.883 245.722 143.845 245.773 143.805 245.813L145.219 247.227ZM145.66 246.63C145.819 246.376 145.933 246.1 145.998 245.807L144.046 245.373C144.031 245.44 144.005 245.504 143.964 245.57L145.66 246.63ZM146.003 245.786C146.052 245.538 146.082 245.291 146.082 245.05H144.082C144.082 245.129 144.072 245.242 144.041 245.394L146.003 245.786ZM146.082 245.05V238.39H144.082V245.05H146.082ZM146.082 238.39C146.082 237.782 145.967 237.2 145.724 236.66L143.9 237.48C144.017 237.74 144.082 238.038 144.082 238.39H146.082ZM145.747 236.714C145.537 236.165 145.226 235.683 144.804 235.289L143.44 236.751C143.618 236.917 143.767 237.135 143.878 237.426L145.747 236.714ZM144.829 235.313C144.454 234.938 144.014 234.646 143.52 234.438L142.744 236.282C143.01 236.394 143.23 236.542 143.415 236.727L144.829 235.313ZM143.538 234.446C143.055 234.232 142.547 234.12 142.022 234.12V236.12C142.257 236.12 142.489 236.169 142.726 236.274L143.538 234.446ZM142.022 234.12C141.372 234.12 140.755 234.246 140.195 234.526L141.089 236.314C141.329 236.194 141.632 236.12 142.022 236.12V234.12ZM140.176 234.535C139.695 234.788 139.274 235.114 138.926 235.515L140.438 236.825C140.61 236.626 140.829 236.452 141.108 236.305L140.176 234.535ZM138.901 235.545C138.597 235.925 138.357 236.344 138.18 236.798L140.044 237.522C140.147 237.257 140.287 237.015 140.463 236.795L138.901 235.545ZM138.169 236.827C138.016 237.261 137.932 237.703 137.932 238.15H139.932C139.932 237.957 139.968 237.739 140.055 237.493L138.169 236.827ZM137.932 238.15V245.05H139.932V238.15H137.932ZM137.932 245.05C137.932 245.291 137.962 245.538 138.011 245.786L139.973 245.394C139.942 245.242 139.932 245.129 139.932 245.05H137.932ZM138.016 245.807C138.073 246.064 138.16 246.312 138.278 246.547L140.066 245.653C140.024 245.568 139.991 245.476 139.968 245.373L138.016 245.807ZM138.324 246.63C138.443 246.821 138.57 246.999 138.704 247.16L140.24 245.88C140.175 245.801 140.101 245.699 140.02 245.57L138.324 246.63ZM138.765 247.227C139.06 247.522 139.449 247.7 139.892 247.7V245.7C139.94 245.7 140 245.71 140.061 245.736C140.121 245.761 140.159 245.793 140.179 245.813L138.765 247.227ZM138.892 246.7V247H140.892V246.7H138.892ZM139.892 246H136.022V248H139.892V246ZM137.022 247V246.7H135.022V247H137.022ZM136.022 247.7C136.482 247.7 136.854 247.492 137.119 247.227L135.705 245.813C135.713 245.805 135.746 245.775 135.805 245.747C135.869 245.718 135.944 245.7 136.022 245.7V247.7ZM137.119 247.227C137.319 247.027 137.481 246.798 137.606 246.547L135.818 245.653C135.783 245.722 135.745 245.773 135.705 245.813L137.119 247.227ZM137.56 246.63C137.719 246.376 137.833 246.1 137.898 245.807L135.946 245.373C135.931 245.44 135.905 245.504 135.864 245.57L137.56 246.63ZM137.903 245.786C137.952 245.538 137.982 245.291 137.982 245.05H135.982C135.982 245.129 135.972 245.242 135.941 245.394L137.903 245.786ZM137.982 245.05V237.04H135.982V245.05H137.982ZM137.982 237.04C137.982 236.84 137.97 236.626 137.947 236.401L135.957 236.6C135.974 236.774 135.982 236.92 135.982 237.04H137.982ZM137.947 236.401C137.92 236.131 137.865 235.868 137.781 235.614L135.883 236.246C135.919 236.352 135.944 236.469 135.957 236.6L137.947 236.401ZM137.781 235.614C137.665 235.267 137.465 234.962 137.183 234.721L135.881 236.239C135.883 236.24 135.883 236.241 135.882 236.24C135.881 236.239 135.881 236.238 135.88 236.237C135.879 236.236 135.879 236.236 135.88 236.237C135.88 236.238 135.882 236.241 135.883 236.246L137.781 235.614ZM137.183 234.721C136.813 234.404 136.367 234.3 135.962 234.3V236.3C136 236.3 136.003 236.305 135.983 236.299C135.96 236.291 135.922 236.274 135.881 236.239L137.183 234.721ZM136.962 235.3V235.03H134.962V235.3H136.962ZM136.278 235.979L139.248 234.989L138.616 233.091L135.646 234.081L136.278 235.979ZM137.932 234.04V235.57H139.932V234.04H137.932ZM139.682 236.232C139.898 235.986 140.223 235.717 140.686 235.432L139.638 233.728C139.061 234.083 138.566 234.474 138.182 234.908L139.682 236.232ZM140.672 235.44C141.011 235.24 141.518 235.1 142.262 235.1V233.1C141.286 233.1 140.393 233.28 139.652 233.72L140.672 235.44ZM142.262 235.1C142.728 235.1 143.109 235.167 143.42 235.28L144.104 233.4C143.535 233.193 142.916 233.1 142.262 233.1V235.1ZM143.42 235.28C143.77 235.407 144.049 235.565 144.271 235.746L145.533 234.194C145.115 233.855 144.634 233.593 144.104 233.4L143.42 235.28ZM144.325 235.787C144.584 235.969 144.797 236.177 144.972 236.41L146.572 235.21C146.267 234.803 145.901 234.451 145.479 234.153L144.325 235.787ZM144.972 236.41C145.187 236.696 145.358 236.963 145.49 237.211L147.254 236.269C147.067 235.917 146.838 235.564 146.572 235.21L144.972 236.41ZM147.254 237.211C147.39 236.956 147.554 236.697 147.748 236.431L146.136 235.249C145.89 235.584 145.674 235.924 145.49 236.269L147.254 237.211ZM147.766 236.407C147.937 236.158 148.14 235.931 148.377 235.726L147.067 234.214C146.704 234.529 146.387 234.882 146.118 235.273L147.766 236.407ZM148.353 235.746C148.583 235.559 148.858 235.4 149.188 235.275L148.476 233.406C147.966 233.6 147.501 233.861 147.091 234.194L148.353 235.746ZM149.174 235.28C149.482 235.168 149.872 235.1 150.362 235.1V233.1C149.692 233.1 149.062 233.192 148.49 233.4L149.174 235.28ZM150.362 235.1C151.38 235.1 152.05 235.284 152.472 235.548L153.532 233.852C152.674 233.316 151.585 233.1 150.362 233.1V235.1ZM152.472 235.548C152.992 235.873 153.327 236.233 153.531 236.612L155.294 235.668C154.897 234.927 154.292 234.327 153.532 233.852L152.472 235.548ZM153.544 236.636C153.801 237.086 153.958 237.552 154.02 238.038L156.004 237.782C155.907 237.028 155.663 236.314 155.28 235.644L153.544 236.636ZM154.021 238.042C154.097 238.616 154.132 239.079 154.132 239.44H156.132C156.132 238.961 156.087 238.404 156.003 237.778L154.021 238.042ZM154.132 239.44V245.05H156.132V239.44H154.132ZM159.735 244.69L159.028 243.983L159.015 243.996L159.002 244.01L159.735 244.69ZM161.775 244.69L162.482 243.983L162.482 243.983L161.775 244.69ZM161.775 246.73L162.456 247.463L162.469 247.45L162.482 247.437L161.775 246.73ZM159.735 246.73L159.002 247.41L159.028 247.438L159.055 247.463L159.735 246.73ZM160.345 245.71C160.345 245.549 160.388 245.456 160.468 245.37L159.002 244.01C158.562 244.484 158.345 245.071 158.345 245.71H160.345ZM160.442 245.397C160.533 245.307 160.617 245.27 160.755 245.27V243.27C160.093 243.27 159.498 243.513 159.028 243.983L160.442 245.397ZM160.755 245.27C160.893 245.27 160.978 245.307 161.068 245.397L162.482 243.983C162.013 243.513 161.417 243.27 160.755 243.27V245.27ZM161.068 245.397C161.158 245.487 161.195 245.572 161.195 245.71H163.195C163.195 245.048 162.952 244.453 162.482 243.983L161.068 245.397ZM161.195 245.71C161.195 245.848 161.158 245.933 161.068 246.023L162.482 247.437C162.952 246.967 163.195 246.372 163.195 245.71H161.195ZM161.095 245.997C161.009 246.077 160.916 246.12 160.755 246.12V248.12C161.395 248.12 161.981 247.903 162.456 247.463L161.095 245.997ZM160.755 246.12C160.595 246.12 160.501 246.077 160.416 245.997L159.055 247.463C159.529 247.903 160.116 248.12 160.755 248.12V246.12ZM160.468 246.05C160.388 245.964 160.345 245.871 160.345 245.71H158.345C158.345 246.349 158.562 246.936 159.002 247.41L160.468 246.05ZM176.24 245.92V246.92H177.24V245.92H176.24ZM175.79 246.04L176.184 246.959L176.237 246.937L176.286 246.908L175.79 246.04ZM175.31 246.28L174.825 245.406L174.814 245.412L174.803 245.418L175.31 246.28ZM174.02 246.91L174.379 247.843L174.395 247.837L174.41 247.831L174.02 246.91ZM169.13 246.73L168.763 247.66L168.776 247.665L168.789 247.67L169.13 246.73ZM166.88 245.35L166.185 246.069L166.197 246.08L166.209 246.091L166.88 245.35ZM165.41 243.28L164.49 243.671L164.496 243.685L164.502 243.699L165.41 243.28ZM165.35 238.24L164.425 237.86L164.421 237.871L164.417 237.881L165.35 238.24ZM168.83 234.73L168.444 233.808L168.436 233.811L168.83 234.73ZM173.54 234.46L173.176 235.391L173.194 235.398L173.212 235.405L173.54 234.46ZM174.71 234.94L175.196 234.066L175.177 234.055L175.158 234.046L174.71 234.94ZM175.22 235.18L174.869 236.116L174.887 236.123L174.904 236.129L175.22 235.18ZM175.76 235.27H176.76V234.27H175.76V235.27ZM175.76 237.55V238.55H176.76V237.55H175.76ZM175.46 237.55L174.493 237.805L174.689 238.55H175.46V237.55ZM174.92 236.56L174.165 237.215L174.176 237.228L174.188 237.24L174.92 236.56ZM174.02 235.81L174.527 234.948L174.527 234.948L174.02 235.81ZM172.91 235.36L172.668 236.33L172.668 236.33L172.91 235.36ZM169.58 235.66L169.992 236.571L170.004 236.566L170.016 236.56L169.58 235.66ZM168.05 236.8L168.805 237.456L168.812 237.448L168.819 237.44L168.05 236.8ZM167.15 238.39L168.099 238.706L168.099 238.706L167.15 238.39ZM167.21 242.44L166.262 242.756L166.264 242.764L167.21 242.44ZM168.23 244.33L167.444 244.948L167.451 244.956L167.458 244.965L168.23 244.33ZM169.88 245.68L170.349 244.797L170.349 244.797L169.88 245.68ZM173.57 245.95L173.254 245.001L173.242 245.006L173.57 245.95ZM174.77 245.32L174.163 244.526L174.151 244.535L174.14 244.544L174.77 245.32ZM175.58 244.48L176.412 245.035L176.421 245.022L176.428 245.01L175.58 244.48ZM175.94 243.58V242.58H175.073L174.95 243.439L175.94 243.58ZM176.24 243.58H177.24V242.58H176.24V243.58ZM176.24 244.92C175.905 244.92 175.584 245.006 175.294 245.172L176.286 246.908C176.284 246.909 176.277 246.913 176.265 246.916C176.254 246.919 176.245 246.92 176.24 246.92V244.92ZM175.396 245.121C175.216 245.198 175.025 245.295 174.825 245.406L175.796 247.154C175.956 247.065 176.084 247.002 176.184 246.959L175.396 245.121ZM174.803 245.418C174.513 245.589 174.126 245.78 173.631 245.989L174.41 247.831C174.955 247.601 175.427 247.371 175.817 247.142L174.803 245.418ZM173.661 245.977C173.299 246.116 172.754 246.21 171.98 246.21V248.21C172.887 248.21 173.702 248.104 174.379 247.843L173.661 245.977ZM171.98 246.21C171.066 246.21 170.233 246.067 169.472 245.79L168.789 247.67C169.787 248.033 170.854 248.21 171.98 248.21V246.21ZM169.498 245.8C168.742 245.501 168.097 245.103 167.552 244.609L166.209 246.091C166.944 246.757 167.799 247.279 168.763 247.66L169.498 245.8ZM167.576 244.631C167.044 244.117 166.626 243.528 166.318 242.861L164.502 243.699C164.914 244.592 165.477 245.383 166.185 246.069L167.576 244.631ZM166.331 242.889C166.046 242.22 165.9 241.494 165.9 240.7H163.9C163.9 241.746 164.094 242.74 164.49 243.671L166.331 242.889ZM165.9 240.7C165.9 239.959 166.029 239.261 166.284 238.599L164.417 237.881C164.072 238.779 163.9 239.721 163.9 240.7H165.9ZM166.275 238.62C166.548 237.956 166.928 237.373 167.419 236.865L165.981 235.475C165.312 236.167 164.793 236.964 164.425 237.86L166.275 238.62ZM167.419 236.865C167.898 236.369 168.495 235.962 169.224 235.649L168.436 233.811C167.486 234.218 166.662 234.771 165.981 235.475L167.419 236.865ZM169.216 235.652C169.936 235.351 170.772 235.19 171.74 235.19V233.19C170.549 233.19 169.444 233.389 168.444 233.808L169.216 235.652ZM171.74 235.19C172.412 235.19 172.875 235.273 173.176 235.391L173.905 233.529C173.286 233.287 172.549 233.19 171.74 233.19V235.19ZM173.212 235.405C173.645 235.555 173.992 235.699 174.263 235.834L175.158 234.046C174.788 233.861 174.356 233.685 173.869 233.516L173.212 235.405ZM174.225 235.814C174.439 235.934 174.655 236.036 174.869 236.116L175.571 234.244C175.466 234.204 175.341 234.147 175.196 234.066L174.225 235.814ZM174.904 236.129C175.18 236.221 175.467 236.27 175.76 236.27V234.27C175.693 234.27 175.62 234.259 175.537 234.231L174.904 236.129ZM174.76 235.27V237.55H176.76V235.27H174.76ZM175.76 236.55H175.46V238.55H175.76V236.55ZM176.427 237.296C176.287 236.761 176.028 236.284 175.653 235.88L174.188 237.24C174.332 237.396 174.434 237.579 174.493 237.805L176.427 237.296ZM175.676 235.905C175.345 235.524 174.962 235.203 174.527 234.948L173.513 236.672C173.759 236.817 173.975 236.996 174.165 237.215L175.676 235.905ZM174.527 234.948C174.101 234.697 173.642 234.512 173.153 234.39L172.668 236.33C172.979 236.408 173.259 236.523 173.513 236.672L174.527 234.948ZM173.153 234.39C172.68 234.272 172.209 234.21 171.74 234.21V236.21C172.032 236.21 172.34 236.248 172.668 236.33L173.153 234.39ZM171.74 234.21C170.798 234.21 169.924 234.383 169.145 234.76L170.016 236.56C170.477 236.337 171.043 236.21 171.74 236.21V234.21ZM169.169 234.749C168.423 235.085 167.787 235.554 167.282 236.16L168.819 237.44C169.113 237.086 169.497 236.795 169.992 236.571L169.169 234.749ZM167.296 236.144C166.806 236.707 166.442 237.354 166.202 238.074L168.099 238.706C168.259 238.226 168.495 237.813 168.805 237.456L167.296 236.144ZM166.202 238.074C165.967 238.777 165.85 239.504 165.85 240.25H167.85C167.85 239.716 167.933 239.203 168.099 238.706L166.202 238.074ZM165.85 240.25C165.85 241.1 165.989 241.937 166.262 242.756L168.159 242.124C167.952 241.503 167.85 240.88 167.85 240.25H165.85ZM166.264 242.764C166.539 243.566 166.932 244.296 167.444 244.948L169.017 243.712C168.649 243.244 168.361 242.714 168.156 242.116L166.264 242.764ZM167.458 244.965C168.001 245.627 168.655 246.161 169.411 246.563L170.349 244.797C169.826 244.519 169.379 244.153 169.003 243.695L167.458 244.965ZM169.411 246.563C170.21 246.988 171.094 247.19 172.04 247.19V245.19C171.387 245.19 170.83 245.052 170.349 244.797L169.411 246.563ZM172.04 247.19C172.696 247.19 173.319 247.096 173.899 246.895L173.242 245.006C172.902 245.124 172.505 245.19 172.04 245.19V247.19ZM173.887 246.899C174.456 246.709 174.969 246.447 175.401 246.096L174.14 244.544C173.932 244.713 173.645 244.871 173.254 245.001L173.887 246.899ZM175.378 246.114C175.789 245.8 176.141 245.442 176.412 245.035L174.748 243.925C174.62 244.118 174.431 244.32 174.163 244.526L175.378 246.114ZM176.428 245.01C176.679 244.609 176.865 244.177 176.93 243.721L174.95 243.439C174.935 243.543 174.882 243.711 174.732 243.95L176.428 245.01ZM175.94 244.58H176.24V242.58H175.94V244.58ZM175.24 243.58V245.92H177.24V243.58H175.24ZM181.837 246.73L181.446 247.65L181.455 247.655L181.465 247.658L181.837 246.73ZM179.767 245.38L179.047 246.075L179.059 246.087L179.072 246.099L179.767 245.38ZM178.447 243.34L177.513 243.699L177.517 243.709L177.522 243.72L178.447 243.34ZM178.507 238.12L179.427 238.511L179.43 238.503L178.507 238.12ZM179.917 236.02L179.222 235.301L179.222 235.301L179.917 236.02ZM182.047 234.67L181.683 233.738L181.683 233.738L182.047 234.67ZM187.357 234.67L186.985 235.598L186.995 235.603L187.006 235.606L187.357 234.67ZM189.427 235.96L190.121 235.241L189.427 235.96ZM190.777 237.97L189.852 238.35L189.855 238.358L190.777 237.97ZM190.807 243.01L189.867 242.666L189.863 242.68L190.807 243.01ZM189.517 245.14L188.786 244.457L188.78 244.463L188.775 244.47L189.517 245.14ZM187.417 246.64L187.005 245.729L186.996 245.733L187.417 246.64ZM184.357 235.18V234.18H184.329L184.301 234.182L184.357 235.18ZM182.437 235.72L182.922 236.594L182.933 236.588L182.437 235.72ZM181.057 236.92L180.261 236.315L180.257 236.32L181.057 236.92ZM180.217 238.57L179.265 238.263L179.26 238.277L179.256 238.291L180.217 238.57ZM180.277 242.62L179.323 242.92L179.328 242.936L179.334 242.953L180.277 242.62ZM181.267 244.45L180.477 245.064L180.484 245.073L180.491 245.082L181.267 244.45ZM182.827 245.74L183.297 244.858L183.297 244.858L182.827 245.74ZM186.787 245.74L186.304 244.864L186.297 244.868L186.291 244.872L186.787 245.74ZM188.227 244.51L189.023 245.115L189.029 245.108L189.034 245.1L188.227 244.51ZM189.067 242.77L188.112 242.472L188.108 242.485L188.104 242.499L189.067 242.77ZM189.067 238.87L188.107 239.152L188.11 239.16L189.067 238.87ZM188.137 237.04L187.337 237.64L187.342 237.647L187.347 237.654L188.137 237.04ZM186.547 235.69L186.066 236.567L186.078 236.573L186.547 235.69ZM184.537 246.21C183.644 246.21 182.873 246.067 182.208 245.802L181.465 247.658C182.401 248.033 183.43 248.21 184.537 248.21V246.21ZM182.228 245.81C181.532 245.514 180.947 245.129 180.461 244.661L179.072 246.099C179.747 246.751 180.542 247.266 181.446 247.65L182.228 245.81ZM180.486 244.685C180.018 244.201 179.646 243.629 179.372 242.96L177.522 243.72C177.887 244.611 178.395 245.399 179.047 246.075L180.486 244.685ZM179.38 242.981C179.128 242.327 178.997 241.6 178.997 240.79H176.997C176.997 241.82 177.165 242.793 177.513 243.699L179.38 242.981ZM178.997 240.79C178.997 239.927 179.146 239.173 179.427 238.511L177.586 237.729C177.188 238.667 176.997 239.693 176.997 240.79H178.997ZM179.43 238.503C179.721 237.801 180.116 237.218 180.612 236.739L179.222 235.301C178.517 235.982 177.972 236.799 177.583 237.737L179.43 238.503ZM180.612 236.739C181.111 236.256 181.707 235.876 182.41 235.602L181.683 233.738C180.747 234.104 179.922 234.624 179.222 235.301L180.612 236.739ZM182.41 235.602C183.104 235.331 183.87 235.19 184.717 235.19V233.19C183.644 233.19 182.629 233.369 181.683 233.738L182.41 235.602ZM184.717 235.19C185.564 235.19 186.316 235.331 186.985 235.598L187.728 233.742C186.797 233.369 185.789 233.19 184.717 233.19V235.19ZM187.006 235.606C187.685 235.861 188.256 236.22 188.732 236.679L190.121 235.241C189.437 234.58 188.628 234.079 187.708 233.734L187.006 235.606ZM188.732 236.679C189.208 237.139 189.582 237.692 189.852 238.35L191.702 237.59C191.332 236.688 190.805 235.901 190.121 235.241L188.732 236.679ZM189.855 238.358C190.118 238.982 190.257 239.688 190.257 240.49H192.257C192.257 239.452 192.076 238.478 191.698 237.582L189.855 238.358ZM190.257 240.49C190.257 241.231 190.128 241.955 189.868 242.666L191.746 243.354C192.085 242.425 192.257 241.469 192.257 240.49H190.257ZM189.863 242.68C189.629 243.348 189.272 243.938 188.786 244.457L190.247 245.823C190.922 245.102 191.425 244.272 191.751 243.34L189.863 242.68ZM188.775 244.47C188.316 244.977 187.732 245.4 187.005 245.729L187.829 247.551C188.781 247.12 189.597 246.543 190.259 245.81L188.775 244.47ZM186.996 245.733C186.333 246.04 185.522 246.21 184.537 246.21V248.21C185.751 248.21 186.86 248 187.837 247.547L186.996 245.733ZM184.301 234.182C183.445 234.229 182.651 234.446 181.941 234.852L182.933 236.588C183.343 236.354 183.829 236.211 184.412 236.178L184.301 234.182ZM181.951 234.846C181.288 235.214 180.723 235.707 180.261 236.315L181.853 237.525C182.151 237.133 182.505 236.826 182.922 236.594L181.951 234.846ZM180.257 236.32C179.825 236.896 179.496 237.547 179.265 238.263L181.168 238.877C181.337 238.353 181.569 237.904 181.857 237.52L180.257 236.32ZM179.256 238.291C179.05 239.001 178.947 239.725 178.947 240.46H180.947C180.947 239.915 181.023 239.379 181.177 238.849L179.256 238.291ZM178.947 240.46C178.947 241.301 179.072 242.122 179.323 242.92L181.231 242.32C181.041 241.718 180.947 241.099 180.947 240.46H178.947ZM179.334 242.953C179.608 243.729 179.988 244.435 180.477 245.064L182.056 243.836C181.706 243.385 181.426 242.871 181.22 242.287L179.334 242.953ZM180.491 245.082C181.013 245.722 181.636 246.238 182.356 246.622L183.297 244.858C182.817 244.602 182.4 244.258 182.042 243.818L180.491 245.082ZM182.356 246.622C183.113 247.026 183.947 247.22 184.837 247.22V245.22C184.246 245.22 183.74 245.094 183.297 244.858L182.356 246.622ZM184.837 247.22C185.725 247.22 186.551 247.027 187.283 246.608L186.291 244.872C185.903 245.093 185.429 245.22 184.837 245.22V247.22ZM187.27 246.616C187.965 246.232 188.554 245.732 189.023 245.115L187.431 243.905C187.14 244.288 186.768 244.608 186.304 244.864L187.27 246.616ZM189.034 245.1C189.487 244.481 189.818 243.792 190.029 243.041L188.104 242.499C187.955 243.028 187.727 243.499 187.419 243.92L189.034 245.1ZM190.021 243.068C190.25 242.336 190.367 241.596 190.367 240.85H188.367C188.367 241.384 188.284 241.924 188.112 242.472L190.021 243.068ZM190.367 240.85C190.367 240.087 190.251 239.33 190.024 238.58L188.11 239.16C188.282 239.73 188.367 240.293 188.367 240.85H190.367ZM190.026 238.588C189.792 237.792 189.426 237.069 188.926 236.426L187.347 237.654C187.688 238.091 187.941 238.588 188.107 239.152L190.026 238.588ZM188.937 236.44C188.425 235.758 187.781 235.213 187.016 234.807L186.078 236.573C186.593 236.847 187.008 237.202 187.337 237.64L188.937 236.44ZM187.028 234.813C186.235 234.378 185.333 234.18 184.357 234.18V236.18C185.06 236.18 185.619 236.322 186.066 236.567L187.028 234.813ZM213.2 245.59L212.219 245.786L212.221 245.797L212.224 245.807L213.2 245.59ZM213.38 246.1L212.485 246.547L212.485 246.547L213.38 246.1ZM213.65 246.52L212.882 247.16L212.911 247.195L212.943 247.227L213.65 246.52ZM214.07 246.7H215.07V245.7H214.07V246.7ZM214.07 247V248H215.07V247H214.07ZM210.17 247H209.17V248H210.17V247ZM210.17 246.7V245.7H209.17V246.7H210.17ZM210.59 246.52L211.297 247.227L211.297 247.227L210.59 246.52ZM210.89 246.1L210.042 245.57L210.017 245.61L209.995 245.653L210.89 246.1ZM211.1 245.59L212.076 245.807L212.078 245.797L212.08 245.786L211.1 245.59ZM210.95 237.25L209.988 237.525L209.994 237.546L210.001 237.566L210.95 237.25ZM210.38 236.17L209.604 236.801L209.614 236.813L209.624 236.825L210.38 236.17ZM209.42 235.42L208.954 236.305L208.973 236.315L208.992 236.324L209.42 235.42ZM206.72 235.51L207.254 236.356L207.265 236.348L206.72 235.51ZM205.76 236.41L204.949 235.825L204.938 235.84L204.928 235.855L205.76 236.41ZM205.22 237.52L206.169 237.836L206.171 237.829L206.173 237.821L205.22 237.52ZM205.1 245.59L204.119 245.786L204.121 245.797L204.124 245.807L205.1 245.59ZM205.28 246.1L204.385 246.547L204.407 246.59L204.432 246.63L205.28 246.1ZM205.58 246.52L204.812 247.16L204.841 247.195L204.873 247.227L205.58 246.52ZM206 246.7H207V245.7H206V246.7ZM206 247V248H207V247H206ZM202.13 247H201.13V248H202.13V247ZM202.13 246.7V245.7H201.13V246.7H202.13ZM202.52 246.52L203.227 247.227L203.227 247.227L202.52 246.52ZM202.82 246.1L201.972 245.57L201.947 245.61L201.925 245.653L202.82 246.1ZM203.03 245.59L204.006 245.807L204.008 245.797L204.01 245.786L203.03 245.59ZM202.82 237.07L201.885 237.426L201.896 237.454L201.908 237.48L202.82 237.07ZM202.13 236.02L201.423 236.727L201.435 236.739L201.448 236.751L202.13 236.02ZM201.14 235.36L200.734 236.274L200.743 236.278L200.752 236.282L201.14 235.36ZM198.65 235.42L198.203 234.526L198.193 234.53L198.184 234.535L198.65 235.42ZM197.69 236.17L196.934 235.515L196.921 235.53L196.909 235.545L197.69 236.17ZM197.12 237.16L196.188 236.798L196.182 236.812L196.177 236.827L197.12 237.16ZM197 245.59L196.019 245.786L196.021 245.797L196.024 245.807L197 245.59ZM197.18 246.1L196.285 246.547L196.307 246.59L196.332 246.63L197.18 246.1ZM197.48 246.52L196.712 247.16L196.741 247.195L196.773 247.227L197.48 246.52ZM197.9 246.7H198.9V245.7H197.9V246.7ZM197.9 247V248H198.9V247H197.9ZM194.03 247H193.03V248H194.03V247ZM194.03 246.7V245.7H193.03V246.7H194.03ZM194.42 246.52L195.127 247.227L195.127 247.227L194.42 246.52ZM194.72 246.1L193.872 245.57L193.847 245.61L193.825 245.653L194.72 246.1ZM194.93 245.59L195.906 245.807L195.908 245.797L195.91 245.786L194.93 245.59ZM194.96 236.5L195.955 236.401L195.955 236.401L194.96 236.5ZM194.54 235.48L193.889 236.239L193.889 236.239L194.54 235.48ZM193.97 235.3H192.97V236.3H193.97V235.3ZM193.97 235.03L193.654 234.081L192.97 234.309V235.03H193.97ZM196.94 234.04H197.94V232.653L196.624 233.091L196.94 234.04ZM196.94 235.57H195.94V238.215L197.69 236.232L196.94 235.57ZM198.17 234.58L197.66 233.72L197.653 233.724L197.646 233.728L198.17 234.58ZM201.77 234.34L202.112 233.4L202.112 233.4L201.77 234.34ZM202.91 234.97L202.279 235.746L202.306 235.767L202.333 235.787L202.91 234.97ZM204.38 236.74L203.497 237.211L204.38 238.865L205.262 237.211L204.38 236.74ZM204.95 235.84L205.756 236.431L205.765 236.419L205.774 236.407L204.95 235.84ZM205.73 234.97L205.099 234.194L205.087 234.204L205.075 234.214L205.73 234.97ZM206.84 234.34L206.498 233.4L206.491 233.403L206.484 233.406L206.84 234.34ZM211.01 234.7L211.54 233.852L211.54 233.852L211.01 234.7ZM212.42 236.14L211.538 236.612L211.545 236.624L211.552 236.636L212.42 236.14ZM213.02 237.91L212.028 238.038L212.029 238.042L213.02 237.91ZM212.14 245.05C212.14 245.291 212.17 245.538 212.219 245.786L214.18 245.394C214.15 245.242 214.14 245.129 214.14 245.05H212.14ZM212.224 245.807C212.281 246.064 212.368 246.312 212.485 246.547L214.274 245.653C214.232 245.568 214.199 245.476 214.176 245.373L212.224 245.807ZM212.485 246.547C212.595 246.766 212.726 246.973 212.882 247.16L214.418 245.88C214.374 245.827 214.325 245.754 214.274 245.653L212.485 246.547ZM212.943 247.227C213.238 247.522 213.627 247.7 214.07 247.7V245.7C214.118 245.7 214.178 245.71 214.239 245.736C214.298 245.761 214.337 245.793 214.357 245.813L212.943 247.227ZM213.07 246.7V247H215.07V246.7H213.07ZM214.07 246H210.17V248H214.07V246ZM211.17 247V246.7H209.17V247H211.17ZM210.17 247.7C210.612 247.7 211.002 247.522 211.297 247.227L209.883 245.813C209.902 245.793 209.941 245.761 210.001 245.736C210.062 245.71 210.121 245.7 210.17 245.7V247.7ZM211.297 247.227C211.497 247.027 211.659 246.798 211.784 246.547L209.995 245.653C209.961 245.722 209.923 245.773 209.883 245.813L211.297 247.227ZM211.738 246.63C211.897 246.376 212.011 246.1 212.076 245.807L210.124 245.373C210.109 245.44 210.083 245.504 210.042 245.57L211.738 246.63ZM212.08 245.786C212.13 245.538 212.16 245.291 212.16 245.05H210.16C210.16 245.129 210.15 245.242 210.119 245.394L212.08 245.786ZM212.16 245.05V238.57H210.16V245.05H212.16ZM212.16 238.57C212.16 238.007 212.074 237.46 211.899 236.934L210.001 237.566C210.106 237.88 210.16 238.213 210.16 238.57H212.16ZM211.911 236.975C211.755 236.429 211.5 235.936 211.136 235.515L209.624 236.825C209.779 237.004 209.904 237.231 209.988 237.525L211.911 236.975ZM211.156 235.539C210.8 235.101 210.36 234.759 209.848 234.516L208.992 236.324C209.24 236.441 209.44 236.599 209.604 236.801L211.156 235.539ZM209.886 234.535C209.346 234.251 208.753 234.12 208.13 234.12V236.12C208.467 236.12 208.734 236.189 208.954 236.305L209.886 234.535ZM208.13 234.12C207.423 234.12 206.758 234.293 206.175 234.672L207.265 236.348C207.482 236.207 207.757 236.12 208.13 236.12V234.12ZM206.186 234.665C205.699 234.972 205.285 235.36 204.949 235.825L206.571 236.996C206.755 236.74 206.98 236.528 207.254 236.356L206.186 234.665ZM204.928 235.855C204.64 236.287 204.417 236.742 204.266 237.219L206.173 237.821C206.263 237.538 206.4 237.253 206.592 236.965L204.928 235.855ZM204.271 237.204C204.135 237.614 204.04 238.029 204.04 238.42H206.04C206.04 238.331 206.065 238.146 206.169 237.836L204.271 237.204ZM204.04 238.42V245.05H206.04V238.42H204.04ZM204.04 245.05C204.04 245.291 204.07 245.538 204.119 245.786L206.08 245.394C206.05 245.242 206.04 245.129 206.04 245.05H204.04ZM204.124 245.807C204.181 246.064 204.268 246.312 204.385 246.547L206.174 245.653C206.132 245.568 206.099 245.476 206.076 245.373L204.124 245.807ZM204.432 246.63C204.551 246.821 204.677 246.999 204.812 247.16L206.348 245.88C206.282 245.801 206.209 245.699 206.128 245.57L204.432 246.63ZM204.873 247.227C205.168 247.522 205.557 247.7 206 247.7V245.7C206.048 245.7 206.108 245.71 206.169 245.736C206.228 245.761 206.267 245.793 206.287 245.813L204.873 247.227ZM205 246.7V247H207V246.7H205ZM206 246H202.13V248H206V246ZM203.13 247V246.7H201.13V247H203.13ZM202.13 247.7C202.59 247.7 202.962 247.492 203.227 247.227L201.813 245.813C201.821 245.805 201.853 245.775 201.913 245.747C201.977 245.718 202.052 245.7 202.13 245.7V247.7ZM203.227 247.227C203.427 247.027 203.589 246.798 203.714 246.547L201.925 245.653C201.891 245.722 201.853 245.773 201.813 245.813L203.227 247.227ZM203.668 246.63C203.827 246.376 203.941 246.1 204.006 245.807L202.054 245.373C202.039 245.44 202.013 245.504 201.972 245.57L203.668 246.63ZM204.01 245.786C204.06 245.538 204.09 245.291 204.09 245.05H202.09C202.09 245.129 202.08 245.242 202.049 245.394L204.01 245.786ZM204.09 245.05V238.39H202.09V245.05H204.09ZM204.09 238.39C204.09 237.782 203.975 237.2 203.732 236.66L201.908 237.48C202.025 237.74 202.09 238.038 202.09 238.39H204.09ZM203.754 236.714C203.545 236.165 203.234 235.683 202.812 235.289L201.448 236.751C201.626 236.917 201.774 237.135 201.885 237.426L203.754 236.714ZM202.837 235.313C202.462 234.938 202.022 234.646 201.528 234.438L200.752 236.282C201.018 236.394 201.238 236.542 201.423 236.727L202.837 235.313ZM201.546 234.446C201.063 234.232 200.555 234.12 200.03 234.12V236.12C200.265 236.12 200.497 236.169 200.734 236.274L201.546 234.446ZM200.03 234.12C199.38 234.12 198.762 234.246 198.203 234.526L199.097 236.314C199.337 236.194 199.64 236.12 200.03 236.12V234.12ZM198.184 234.535C197.703 234.788 197.282 235.114 196.934 235.515L198.446 236.825C198.618 236.626 198.837 236.452 199.116 236.305L198.184 234.535ZM196.909 235.545C196.605 235.925 196.364 236.344 196.188 236.798L198.052 237.522C198.155 237.257 198.294 237.015 198.471 236.795L196.909 235.545ZM196.177 236.827C196.024 237.261 195.94 237.703 195.94 238.15H197.94C197.94 237.957 197.976 237.739 198.063 237.493L196.177 236.827ZM195.94 238.15V245.05H197.94V238.15H195.94ZM195.94 245.05C195.94 245.291 195.97 245.538 196.019 245.786L197.98 245.394C197.95 245.242 197.94 245.129 197.94 245.05H195.94ZM196.024 245.807C196.081 246.064 196.168 246.312 196.285 246.547L198.074 245.653C198.032 245.568 197.999 245.476 197.976 245.373L196.024 245.807ZM196.332 246.63C196.451 246.821 196.577 246.999 196.712 247.16L198.248 245.88C198.182 245.801 198.109 245.699 198.028 245.57L196.332 246.63ZM196.773 247.227C197.068 247.522 197.457 247.7 197.9 247.7V245.7C197.948 245.7 198.008 245.71 198.069 245.736C198.128 245.761 198.167 245.793 198.187 245.813L196.773 247.227ZM196.9 246.7V247H198.9V246.7H196.9ZM197.9 246H194.03V248H197.9V246ZM195.03 247V246.7H193.03V247H195.03ZM194.03 247.7C194.49 247.7 194.862 247.492 195.127 247.227L193.713 245.813C193.721 245.805 193.753 245.775 193.813 245.747C193.877 245.718 193.952 245.7 194.03 245.7V247.7ZM195.127 247.227C195.327 247.027 195.489 246.798 195.614 246.547L193.825 245.653C193.791 245.722 193.753 245.773 193.713 245.813L195.127 247.227ZM195.568 246.63C195.727 246.376 195.841 246.1 195.906 245.807L193.954 245.373C193.939 245.44 193.913 245.504 193.872 245.57L195.568 246.63ZM195.91 245.786C195.96 245.538 195.99 245.291 195.99 245.05H193.99C193.99 245.129 193.98 245.242 193.949 245.394L195.91 245.786ZM195.99 245.05V237.04H193.99V245.05H195.99ZM195.99 237.04C195.99 236.84 195.977 236.626 195.955 236.401L193.965 236.6C193.982 236.774 193.99 236.92 193.99 237.04H195.99ZM195.955 236.401C195.928 236.131 195.873 235.868 195.789 235.614L193.891 236.246C193.926 236.352 193.952 236.469 193.965 236.6L195.955 236.401ZM195.789 235.614C195.673 235.267 195.472 234.962 195.191 234.721L193.889 236.239C193.89 236.24 193.891 236.241 193.89 236.24C193.889 236.239 193.888 236.238 193.888 236.237C193.887 236.236 193.887 236.236 193.888 236.237C193.888 236.238 193.889 236.241 193.891 236.246L195.789 235.614ZM195.191 234.721C194.821 234.404 194.375 234.3 193.97 234.3V236.3C194.008 236.3 194.011 236.305 193.991 236.299C193.968 236.291 193.929 236.274 193.889 236.239L195.191 234.721ZM194.97 235.3V235.03H192.97V235.3H194.97ZM194.286 235.979L197.256 234.989L196.624 233.091L193.654 234.081L194.286 235.979ZM195.94 234.04V235.57H197.94V234.04H195.94ZM197.69 236.232C197.906 235.986 198.231 235.717 198.694 235.432L197.646 233.728C197.069 234.083 196.574 234.474 196.19 234.908L197.69 236.232ZM198.68 235.44C199.018 235.24 199.526 235.1 200.27 235.1V233.1C199.294 233.1 198.401 233.28 197.66 233.72L198.68 235.44ZM200.27 235.1C200.736 235.1 201.117 235.167 201.428 235.28L202.112 233.4C201.543 233.193 200.924 233.1 200.27 233.1V235.1ZM201.428 235.28C201.777 235.407 202.057 235.565 202.279 235.746L203.54 234.194C203.123 233.855 202.642 233.593 202.112 233.4L201.428 235.28ZM202.333 235.787C202.591 235.969 202.805 236.177 202.98 236.41L204.58 235.21C204.275 234.803 203.908 234.451 203.487 234.153L202.333 235.787ZM202.98 236.41C203.194 236.696 203.365 236.963 203.497 237.211L205.262 236.269C205.074 235.917 204.845 235.564 204.58 235.21L202.98 236.41ZM205.262 237.211C205.398 236.956 205.562 236.697 205.756 236.431L204.143 235.249C203.898 235.584 203.682 235.924 203.497 236.269L205.262 237.211ZM205.774 236.407C205.945 236.158 206.148 235.931 206.385 235.726L205.075 234.214C204.712 234.529 204.395 234.882 204.126 235.273L205.774 236.407ZM206.36 235.746C206.591 235.559 206.866 235.4 207.196 235.275L206.484 233.406C205.973 233.6 205.509 233.861 205.099 234.194L206.36 235.746ZM207.182 235.28C207.489 235.168 207.88 235.1 208.37 235.1V233.1C207.7 233.1 207.07 233.192 206.498 233.4L207.182 235.28ZM208.37 235.1C209.387 235.1 210.058 235.284 210.48 235.548L211.54 233.852C210.682 233.316 209.592 233.1 208.37 233.1V235.1ZM210.48 235.548C211 235.873 211.335 236.233 211.538 236.612L213.301 235.668C212.905 234.927 212.3 234.327 211.54 233.852L210.48 235.548ZM211.552 236.636C211.809 237.086 211.965 237.552 212.028 238.038L214.012 237.782C213.914 237.028 213.671 236.314 213.288 235.644L211.552 236.636ZM212.029 238.042C212.105 238.616 212.14 239.079 212.14 239.44H214.14C214.14 238.961 214.095 238.404 214.011 237.778L212.029 238.042ZM212.14 239.44V245.05H214.14V239.44H212.14Z" fill="black"/>
</g>
<rect x="69.0424" y="211" width="120" height="9" rx="4.5" transform="rotate(0.269498 69.0424 211)" fill="#EA1919"/>
<defs>
<filter id="filter0_d_2_9" x="40.32" y="227.2" width="177.75" height="28.01" filterUnits="userSpaceOnUse" color-interpolation-filters="sRGB">
<feFlood flood-opacity="0" result="BackgroundImageFix"/>
<feColorMatrix in="SourceAlpha" type="matrix" values="0 0 0 0 0 0 0 0 0 0 0 0 0 0 0 0 0 0 127 0" result="hardAlpha"/>
<feOffset dy="4"/>
<feGaussianBlur stdDeviation="2"/>
<feComposite in2="hardAlpha" operator="out"/>
<feColorMatrix type="matrix" values="0 0 0 0 0 0 0 0 0 0 0 0 0 0 0 0 0 0 0.25 0"/>
<feBlend mode="normal" in2="BackgroundImageFix" result="effect1_dropShadow_2_9"/>
<feBlend mode="normal" in="SourceGraphic" in2="effect1_dropShadow_2_9" result="shape"/>
</filter>
</defs>
</svg>
